G04 EAGLE Gerber RS-274X export*
G75*
%MOMM*%
%FSLAX34Y34*%
%LPD*%
%INSilkscreen Top*%
%IPPOS*%
%AMOC8*
5,1,8,0,0,1.08239X$1,22.5*%
G01*
G04 Define Apertures*
%ADD10C,0.120000*%
%ADD11C,0.152400*%
%ADD12C,0.127000*%
%ADD13C,0.609600*%
G36*
X1513340Y199009D02*
X1504100Y199009D01*
X1504100Y223712D01*
X1512271Y223712D01*
X1513044Y223700D01*
X1513795Y223663D01*
X1514523Y223601D01*
X1515230Y223515D01*
X1515913Y223405D01*
X1516575Y223270D01*
X1517214Y223110D01*
X1517830Y222925D01*
X1518425Y222716D01*
X1518996Y222483D01*
X1519546Y222225D01*
X1520073Y221942D01*
X1520578Y221635D01*
X1521060Y221303D01*
X1521520Y220946D01*
X1521957Y220565D01*
X1522370Y220161D01*
X1522756Y219737D01*
X1523116Y219291D01*
X1523449Y218825D01*
X1523755Y218339D01*
X1524035Y217831D01*
X1524288Y217303D01*
X1524515Y216754D01*
X1524714Y216184D01*
X1524888Y215594D01*
X1525034Y214982D01*
X1525154Y214350D01*
X1525247Y213698D01*
X1525314Y213024D01*
X1525354Y212330D01*
X1525367Y211615D01*
X1525344Y210674D01*
X1525274Y209763D01*
X1525158Y208883D01*
X1524995Y208032D01*
X1524785Y207210D01*
X1524529Y206419D01*
X1524226Y205658D01*
X1523877Y204926D01*
X1523485Y204230D01*
X1523054Y203577D01*
X1522584Y202965D01*
X1522075Y202395D01*
X1521528Y201867D01*
X1520941Y201381D01*
X1520316Y200937D01*
X1519652Y200534D01*
X1518955Y200177D01*
X1518232Y199867D01*
X1517482Y199605D01*
X1516706Y199390D01*
X1515904Y199223D01*
X1515076Y199104D01*
X1514221Y199033D01*
X1513784Y199015D01*
X1513340Y199009D01*
G37*
%LPC*%
G36*
X1512954Y201691D02*
X1513623Y201710D01*
X1514272Y201766D01*
X1514900Y201859D01*
X1515507Y201989D01*
X1516094Y202157D01*
X1516661Y202362D01*
X1517207Y202604D01*
X1517732Y202884D01*
X1518232Y203198D01*
X1518702Y203545D01*
X1519143Y203926D01*
X1519553Y204339D01*
X1519934Y204785D01*
X1520284Y205264D01*
X1520605Y205775D01*
X1520896Y206320D01*
X1521155Y206894D01*
X1521380Y207492D01*
X1521570Y208117D01*
X1521725Y208766D01*
X1521846Y209440D01*
X1521932Y210140D01*
X1521984Y210865D01*
X1522001Y211615D01*
X1521991Y212180D01*
X1521962Y212729D01*
X1521913Y213261D01*
X1521844Y213775D01*
X1521755Y214273D01*
X1521647Y214753D01*
X1521519Y215216D01*
X1521372Y215663D01*
X1521205Y216092D01*
X1521018Y216504D01*
X1520812Y216899D01*
X1520586Y217277D01*
X1520340Y217638D01*
X1520075Y217982D01*
X1519790Y218309D01*
X1519485Y218619D01*
X1519162Y218911D01*
X1518821Y219184D01*
X1518462Y219438D01*
X1518086Y219674D01*
X1517693Y219890D01*
X1517281Y220088D01*
X1516852Y220267D01*
X1516406Y220427D01*
X1515942Y220568D01*
X1515460Y220691D01*
X1514961Y220794D01*
X1514444Y220879D01*
X1513909Y220945D01*
X1513357Y220992D01*
X1512788Y221020D01*
X1512200Y221030D01*
X1507449Y221030D01*
X1507449Y201691D01*
X1512954Y201691D01*
G37*
%LPD*%
G36*
X1605382Y198658D02*
X1604868Y198671D01*
X1604369Y198707D01*
X1603886Y198767D01*
X1603418Y198852D01*
X1602966Y198961D01*
X1602528Y199095D01*
X1602106Y199252D01*
X1601700Y199434D01*
X1601309Y199640D01*
X1600933Y199871D01*
X1600572Y200125D01*
X1600227Y200404D01*
X1599897Y200707D01*
X1599583Y201034D01*
X1599284Y201386D01*
X1599000Y201762D01*
X1598732Y202161D01*
X1598482Y202581D01*
X1598249Y203025D01*
X1598033Y203490D01*
X1597835Y203977D01*
X1597654Y204486D01*
X1597490Y205017D01*
X1597343Y205570D01*
X1597214Y206146D01*
X1597102Y206743D01*
X1597007Y207363D01*
X1596929Y208004D01*
X1596869Y208668D01*
X1596825Y209353D01*
X1596799Y210061D01*
X1596791Y210791D01*
X1596800Y211581D01*
X1596827Y212348D01*
X1596872Y213092D01*
X1596934Y213813D01*
X1597015Y214510D01*
X1597114Y215184D01*
X1597230Y215835D01*
X1597365Y216462D01*
X1597518Y217067D01*
X1597688Y217648D01*
X1597876Y218205D01*
X1598083Y218739D01*
X1598307Y219251D01*
X1598549Y219738D01*
X1598809Y220203D01*
X1599088Y220644D01*
X1599382Y221060D01*
X1599692Y221449D01*
X1600017Y221812D01*
X1600358Y222147D01*
X1600713Y222456D01*
X1601084Y222738D01*
X1601470Y222993D01*
X1601871Y223221D01*
X1602287Y223423D01*
X1602719Y223597D01*
X1603165Y223745D01*
X1603627Y223865D01*
X1604105Y223959D01*
X1604597Y224027D01*
X1605104Y224067D01*
X1605627Y224080D01*
X1606310Y224061D01*
X1606961Y224002D01*
X1607579Y223903D01*
X1608165Y223766D01*
X1608719Y223589D01*
X1609240Y223373D01*
X1609729Y223117D01*
X1610186Y222822D01*
X1610610Y222488D01*
X1611002Y222115D01*
X1611362Y221702D01*
X1611689Y221250D01*
X1611984Y220758D01*
X1612247Y220228D01*
X1612477Y219658D01*
X1612675Y219048D01*
X1609660Y218505D01*
X1609535Y218870D01*
X1609393Y219212D01*
X1609233Y219530D01*
X1609057Y219824D01*
X1608863Y220095D01*
X1608652Y220343D01*
X1608424Y220566D01*
X1608178Y220767D01*
X1607915Y220943D01*
X1607635Y221096D01*
X1607338Y221226D01*
X1607023Y221332D01*
X1606691Y221415D01*
X1606342Y221473D01*
X1605976Y221509D01*
X1605592Y221521D01*
X1605259Y221511D01*
X1604936Y221481D01*
X1604622Y221432D01*
X1604318Y221363D01*
X1604024Y221275D01*
X1603738Y221167D01*
X1603463Y221039D01*
X1603197Y220892D01*
X1602940Y220724D01*
X1602693Y220538D01*
X1602456Y220331D01*
X1602228Y220105D01*
X1602009Y219860D01*
X1601800Y219594D01*
X1601601Y219309D01*
X1601411Y219005D01*
X1601231Y218681D01*
X1601063Y218340D01*
X1600907Y217982D01*
X1600762Y217606D01*
X1600629Y217212D01*
X1600508Y216801D01*
X1600398Y216372D01*
X1600300Y215926D01*
X1600213Y215461D01*
X1600137Y214980D01*
X1600074Y214480D01*
X1600022Y213964D01*
X1599981Y213429D01*
X1599952Y212877D01*
X1599929Y211720D01*
X1600155Y212107D01*
X1600403Y212470D01*
X1600672Y212809D01*
X1600964Y213125D01*
X1601277Y213416D01*
X1601612Y213684D01*
X1601969Y213928D01*
X1602349Y214148D01*
X1602746Y214343D01*
X1603157Y214513D01*
X1603583Y214656D01*
X1604023Y214773D01*
X1604477Y214864D01*
X1604946Y214929D01*
X1605428Y214968D01*
X1605925Y214981D01*
X1606347Y214973D01*
X1606758Y214948D01*
X1607158Y214906D01*
X1607546Y214847D01*
X1607924Y214772D01*
X1608291Y214680D01*
X1608647Y214572D01*
X1608991Y214446D01*
X1609325Y214304D01*
X1609647Y214145D01*
X1609959Y213970D01*
X1610260Y213778D01*
X1610549Y213569D01*
X1610828Y213343D01*
X1611095Y213101D01*
X1611351Y212842D01*
X1611595Y212569D01*
X1611822Y212284D01*
X1612034Y211988D01*
X1612230Y211681D01*
X1612410Y211361D01*
X1612575Y211031D01*
X1612724Y210689D01*
X1612857Y210335D01*
X1612975Y209970D01*
X1613077Y209593D01*
X1613163Y209205D01*
X1613233Y208805D01*
X1613288Y208394D01*
X1613328Y207971D01*
X1613351Y207537D01*
X1613359Y207091D01*
X1613351Y206609D01*
X1613326Y206140D01*
X1613284Y205683D01*
X1613226Y205240D01*
X1613152Y204809D01*
X1613061Y204391D01*
X1612953Y203986D01*
X1612829Y203594D01*
X1612688Y203214D01*
X1612530Y202848D01*
X1612356Y202495D01*
X1612166Y202154D01*
X1611958Y201826D01*
X1611735Y201511D01*
X1611494Y201209D01*
X1611238Y200920D01*
X1610966Y200646D01*
X1610682Y200390D01*
X1610385Y200151D01*
X1610076Y199931D01*
X1609754Y199727D01*
X1609420Y199542D01*
X1609073Y199374D01*
X1608713Y199224D01*
X1608341Y199091D01*
X1607956Y198976D01*
X1607558Y198879D01*
X1607148Y198800D01*
X1606725Y198738D01*
X1606290Y198694D01*
X1605842Y198667D01*
X1605382Y198658D01*
G37*
%LPC*%
G36*
X1605277Y201201D02*
X1605558Y201207D01*
X1605831Y201225D01*
X1606355Y201296D01*
X1606848Y201416D01*
X1607310Y201584D01*
X1607742Y201800D01*
X1608143Y202063D01*
X1608513Y202375D01*
X1608853Y202735D01*
X1609157Y203136D01*
X1609421Y203573D01*
X1609644Y204047D01*
X1609826Y204556D01*
X1609968Y205101D01*
X1610069Y205682D01*
X1610130Y206298D01*
X1610151Y206951D01*
X1610130Y207603D01*
X1610068Y208216D01*
X1609966Y208790D01*
X1609822Y209327D01*
X1609637Y209825D01*
X1609411Y210284D01*
X1609144Y210706D01*
X1608836Y211089D01*
X1608491Y211430D01*
X1608113Y211725D01*
X1607704Y211976D01*
X1607262Y212180D01*
X1606788Y212339D01*
X1606281Y212453D01*
X1605742Y212521D01*
X1605171Y212544D01*
X1604632Y212524D01*
X1604120Y212463D01*
X1603634Y212363D01*
X1603175Y212222D01*
X1602742Y212041D01*
X1602336Y211819D01*
X1601956Y211557D01*
X1601603Y211255D01*
X1601285Y210918D01*
X1601009Y210550D01*
X1600776Y210152D01*
X1600584Y209723D01*
X1600436Y209264D01*
X1600330Y208775D01*
X1600266Y208255D01*
X1600245Y207705D01*
X1600267Y207007D01*
X1600333Y206341D01*
X1600443Y205707D01*
X1600598Y205106D01*
X1600796Y204537D01*
X1601039Y204000D01*
X1601325Y203496D01*
X1601656Y203024D01*
X1602021Y202597D01*
X1602412Y202226D01*
X1602827Y201913D01*
X1603267Y201656D01*
X1603496Y201550D01*
X1603732Y201457D01*
X1603974Y201379D01*
X1604222Y201315D01*
X1604476Y201265D01*
X1604737Y201229D01*
X1605004Y201208D01*
X1605277Y201201D01*
G37*
%LPD*%
G36*
X1489117Y198658D02*
X1488654Y198664D01*
X1488199Y198683D01*
X1487752Y198713D01*
X1487313Y198755D01*
X1486458Y198877D01*
X1485634Y199046D01*
X1484843Y199264D01*
X1484082Y199531D01*
X1483353Y199846D01*
X1482656Y200210D01*
X1481995Y200619D01*
X1481374Y201069D01*
X1480794Y201561D01*
X1480254Y202095D01*
X1479755Y202670D01*
X1479297Y203287D01*
X1478878Y203945D01*
X1478501Y204646D01*
X1478166Y205383D01*
X1477876Y206154D01*
X1477630Y206958D01*
X1477429Y207795D01*
X1477273Y208665D01*
X1477161Y209568D01*
X1477094Y210505D01*
X1477072Y211474D01*
X1477085Y212203D01*
X1477122Y212912D01*
X1477184Y213600D01*
X1477272Y214269D01*
X1477384Y214917D01*
X1477521Y215546D01*
X1477683Y216154D01*
X1477870Y216743D01*
X1478082Y217312D01*
X1478319Y217860D01*
X1478580Y218389D01*
X1478867Y218897D01*
X1479179Y219386D01*
X1479515Y219854D01*
X1479877Y220303D01*
X1480263Y220732D01*
X1480671Y221137D01*
X1481099Y221516D01*
X1481546Y221870D01*
X1482012Y222197D01*
X1482497Y222497D01*
X1483001Y222772D01*
X1483525Y223021D01*
X1484068Y223243D01*
X1484629Y223439D01*
X1485210Y223609D01*
X1485811Y223753D01*
X1486430Y223871D01*
X1487069Y223963D01*
X1487726Y224028D01*
X1488403Y224067D01*
X1489099Y224080D01*
X1489587Y224074D01*
X1490065Y224056D01*
X1490533Y224026D01*
X1490991Y223984D01*
X1491438Y223930D01*
X1491875Y223863D01*
X1492303Y223785D01*
X1492720Y223695D01*
X1493523Y223478D01*
X1494287Y223212D01*
X1495009Y222899D01*
X1495691Y222537D01*
X1496331Y222128D01*
X1496927Y221673D01*
X1497480Y221171D01*
X1497988Y220622D01*
X1498453Y220027D01*
X1498874Y219385D01*
X1499251Y218696D01*
X1499584Y217961D01*
X1496410Y216910D01*
X1496179Y217433D01*
X1495916Y217924D01*
X1495619Y218384D01*
X1495290Y218812D01*
X1494929Y219208D01*
X1494535Y219572D01*
X1494108Y219905D01*
X1493649Y220206D01*
X1493162Y220473D01*
X1492653Y220704D01*
X1492122Y220900D01*
X1491569Y221060D01*
X1490994Y221185D01*
X1490396Y221274D01*
X1489776Y221327D01*
X1489134Y221345D01*
X1488629Y221335D01*
X1488137Y221304D01*
X1487660Y221252D01*
X1487197Y221180D01*
X1486748Y221088D01*
X1486314Y220974D01*
X1485894Y220840D01*
X1485488Y220686D01*
X1485096Y220510D01*
X1484718Y220315D01*
X1484355Y220098D01*
X1484006Y219861D01*
X1483671Y219603D01*
X1483351Y219325D01*
X1483045Y219026D01*
X1482753Y218707D01*
X1482477Y218369D01*
X1482218Y218016D01*
X1481978Y217648D01*
X1481755Y217265D01*
X1481551Y216867D01*
X1481364Y216453D01*
X1481195Y216024D01*
X1481043Y215579D01*
X1480910Y215120D01*
X1480794Y214645D01*
X1480696Y214155D01*
X1480616Y213649D01*
X1480554Y213128D01*
X1480509Y212592D01*
X1480482Y212041D01*
X1480473Y211474D01*
X1480483Y210914D01*
X1480511Y210367D01*
X1480557Y209834D01*
X1480622Y209315D01*
X1480705Y208810D01*
X1480807Y208319D01*
X1480928Y207842D01*
X1481067Y207379D01*
X1481225Y206929D01*
X1481401Y206494D01*
X1481596Y206072D01*
X1481810Y205664D01*
X1482042Y205270D01*
X1482292Y204890D01*
X1482561Y204524D01*
X1482849Y204172D01*
X1483153Y203838D01*
X1483469Y203525D01*
X1483799Y203234D01*
X1484141Y202964D01*
X1484497Y202716D01*
X1484866Y202490D01*
X1485248Y202285D01*
X1485643Y202101D01*
X1486051Y201939D01*
X1486473Y201799D01*
X1486907Y201681D01*
X1487354Y201584D01*
X1487815Y201508D01*
X1488288Y201454D01*
X1488775Y201422D01*
X1489275Y201411D01*
X1489913Y201431D01*
X1490532Y201491D01*
X1491130Y201592D01*
X1491708Y201732D01*
X1492266Y201913D01*
X1492804Y202133D01*
X1493322Y202394D01*
X1493820Y202695D01*
X1494297Y203036D01*
X1494755Y203418D01*
X1495192Y203839D01*
X1495609Y204300D01*
X1496006Y204802D01*
X1496383Y205344D01*
X1496740Y205926D01*
X1497077Y206548D01*
X1499812Y205180D01*
X1499411Y204406D01*
X1498972Y203680D01*
X1498494Y203002D01*
X1497977Y202371D01*
X1497422Y201788D01*
X1496828Y201252D01*
X1496196Y200764D01*
X1495525Y200324D01*
X1494821Y199934D01*
X1494089Y199595D01*
X1493329Y199309D01*
X1492542Y199075D01*
X1492138Y198977D01*
X1491727Y198893D01*
X1491310Y198821D01*
X1490885Y198762D01*
X1490453Y198717D01*
X1490015Y198684D01*
X1489569Y198665D01*
X1489117Y198658D01*
G37*
G36*
X1555225Y199009D02*
X1538867Y199009D01*
X1538867Y201236D01*
X1539097Y201741D01*
X1539339Y202231D01*
X1539593Y202706D01*
X1539860Y203166D01*
X1540139Y203611D01*
X1540430Y204041D01*
X1540734Y204456D01*
X1541050Y204856D01*
X1541702Y205622D01*
X1542371Y206351D01*
X1543057Y207042D01*
X1543759Y207696D01*
X1545172Y208921D01*
X1546573Y210054D01*
X1547252Y210598D01*
X1547898Y211141D01*
X1548510Y211685D01*
X1549088Y212228D01*
X1549623Y212778D01*
X1550103Y213342D01*
X1550530Y213918D01*
X1550903Y214508D01*
X1551065Y214811D01*
X1551206Y215123D01*
X1551325Y215446D01*
X1551422Y215779D01*
X1551498Y216121D01*
X1551552Y216473D01*
X1551585Y216836D01*
X1551596Y217208D01*
X1551577Y217702D01*
X1551521Y218167D01*
X1551428Y218605D01*
X1551298Y219013D01*
X1551130Y219394D01*
X1550925Y219745D01*
X1550683Y220069D01*
X1550403Y220363D01*
X1550091Y220626D01*
X1549749Y220854D01*
X1549379Y221047D01*
X1548979Y221205D01*
X1548550Y221328D01*
X1548092Y221415D01*
X1547606Y221468D01*
X1547090Y221485D01*
X1546597Y221468D01*
X1546126Y221417D01*
X1545677Y221331D01*
X1545251Y221212D01*
X1544847Y221057D01*
X1544465Y220869D01*
X1544105Y220647D01*
X1543767Y220390D01*
X1543458Y220102D01*
X1543182Y219786D01*
X1542939Y219443D01*
X1542731Y219073D01*
X1542556Y218674D01*
X1542415Y218248D01*
X1542307Y217794D01*
X1542233Y217313D01*
X1539007Y217611D01*
X1539058Y217976D01*
X1539123Y218333D01*
X1539203Y218679D01*
X1539296Y219017D01*
X1539404Y219345D01*
X1539526Y219663D01*
X1539661Y219972D01*
X1539812Y220271D01*
X1539976Y220561D01*
X1540154Y220842D01*
X1540347Y221113D01*
X1540554Y221375D01*
X1540775Y221627D01*
X1541010Y221870D01*
X1541523Y222327D01*
X1541799Y222539D01*
X1542084Y222738D01*
X1542379Y222923D01*
X1542683Y223094D01*
X1542997Y223252D01*
X1543321Y223395D01*
X1543654Y223526D01*
X1543997Y223642D01*
X1544350Y223745D01*
X1544713Y223834D01*
X1545085Y223909D01*
X1545466Y223971D01*
X1545858Y224019D01*
X1546259Y224053D01*
X1546669Y224073D01*
X1547090Y224080D01*
X1547550Y224073D01*
X1547996Y224053D01*
X1548429Y224018D01*
X1548849Y223970D01*
X1549255Y223908D01*
X1549648Y223832D01*
X1550027Y223743D01*
X1550392Y223640D01*
X1550745Y223523D01*
X1551083Y223392D01*
X1551408Y223247D01*
X1551720Y223089D01*
X1552018Y222917D01*
X1552303Y222731D01*
X1552574Y222532D01*
X1552832Y222318D01*
X1553075Y222092D01*
X1553302Y221855D01*
X1553514Y221605D01*
X1553710Y221345D01*
X1553890Y221072D01*
X1554055Y220788D01*
X1554204Y220493D01*
X1554337Y220186D01*
X1554455Y219867D01*
X1554557Y219537D01*
X1554643Y219195D01*
X1554714Y218842D01*
X1554768Y218477D01*
X1554808Y218100D01*
X1554831Y217712D01*
X1554839Y217313D01*
X1554829Y216954D01*
X1554798Y216595D01*
X1554747Y216237D01*
X1554675Y215880D01*
X1554582Y215523D01*
X1554469Y215166D01*
X1554336Y214810D01*
X1554182Y214455D01*
X1554007Y214100D01*
X1553813Y213745D01*
X1553599Y213390D01*
X1553364Y213035D01*
X1552835Y212325D01*
X1552227Y211615D01*
X1551865Y211235D01*
X1551430Y210807D01*
X1550338Y209805D01*
X1548949Y208607D01*
X1547265Y207214D01*
X1546308Y206410D01*
X1545455Y205647D01*
X1544704Y204925D01*
X1544057Y204242D01*
X1543502Y203587D01*
X1543031Y202943D01*
X1542827Y202625D01*
X1542643Y202311D01*
X1542480Y202000D01*
X1542338Y201691D01*
X1555225Y201691D01*
X1555225Y199009D01*
G37*
G36*
X1593215Y199009D02*
X1577734Y199009D01*
X1577734Y201691D01*
X1584028Y201691D01*
X1584028Y220697D01*
X1578453Y216717D01*
X1578453Y219697D01*
X1584291Y223712D01*
X1587201Y223712D01*
X1587201Y201691D01*
X1593215Y201691D01*
X1593215Y199009D01*
G37*
G36*
X1560835Y199009D02*
X1557433Y199009D01*
X1564183Y208757D01*
X1557749Y217979D01*
X1561238Y217979D01*
X1565971Y210598D01*
X1570670Y217979D01*
X1574194Y217979D01*
X1567760Y208792D01*
X1574597Y199009D01*
X1571073Y199009D01*
X1565971Y206793D01*
X1560835Y199009D01*
G37*
G36*
X1474057Y199009D02*
X1458225Y199009D01*
X1458225Y223712D01*
X1461574Y223712D01*
X1461574Y201744D01*
X1474057Y201744D01*
X1474057Y199009D01*
G37*
D10*
X1588253Y449498D02*
X1563253Y449498D01*
X1563253Y534498D01*
X1588253Y534498D01*
X1588253Y449498D01*
X1575753Y449498D02*
X1575753Y450888D01*
X1575753Y533108D02*
X1575753Y534498D01*
D11*
X503770Y277811D02*
X503770Y276371D01*
X503770Y277811D02*
X508568Y277811D01*
X508568Y274932D01*
X508566Y274846D01*
X508560Y274760D01*
X508551Y274674D01*
X508537Y274589D01*
X508520Y274505D01*
X508499Y274421D01*
X508474Y274339D01*
X508446Y274258D01*
X508414Y274178D01*
X508378Y274099D01*
X508339Y274023D01*
X508296Y273948D01*
X508251Y273875D01*
X508202Y273804D01*
X508149Y273736D01*
X508094Y273669D01*
X508036Y273606D01*
X507975Y273545D01*
X507912Y273487D01*
X507845Y273432D01*
X507777Y273380D01*
X507706Y273330D01*
X507633Y273285D01*
X507558Y273242D01*
X507482Y273203D01*
X507403Y273167D01*
X507323Y273135D01*
X507242Y273107D01*
X507160Y273082D01*
X507076Y273061D01*
X506992Y273044D01*
X506907Y273030D01*
X506821Y273021D01*
X506735Y273015D01*
X506649Y273013D01*
X501851Y273013D01*
X501765Y273015D01*
X501679Y273021D01*
X501593Y273030D01*
X501508Y273044D01*
X501424Y273061D01*
X501340Y273082D01*
X501258Y273107D01*
X501177Y273135D01*
X501097Y273167D01*
X501018Y273203D01*
X500942Y273242D01*
X500867Y273285D01*
X500794Y273330D01*
X500723Y273379D01*
X500655Y273432D01*
X500588Y273487D01*
X500525Y273545D01*
X500464Y273606D01*
X500406Y273669D01*
X500351Y273736D01*
X500299Y273804D01*
X500249Y273875D01*
X500204Y273948D01*
X500161Y274023D01*
X500122Y274099D01*
X500086Y274178D01*
X500054Y274258D01*
X500026Y274339D01*
X500001Y274421D01*
X499980Y274505D01*
X499963Y274589D01*
X499949Y274674D01*
X499940Y274760D01*
X499934Y274846D01*
X499932Y274932D01*
X499932Y277811D01*
X499932Y282767D02*
X508568Y282767D01*
X508568Y287564D02*
X499932Y282767D01*
X499932Y287564D02*
X508568Y287564D01*
X508568Y292520D02*
X499932Y292520D01*
X499932Y294919D01*
X499934Y295016D01*
X499940Y295112D01*
X499949Y295208D01*
X499963Y295304D01*
X499980Y295399D01*
X500002Y295493D01*
X500027Y295586D01*
X500055Y295679D01*
X500088Y295770D01*
X500124Y295859D01*
X500164Y295947D01*
X500207Y296034D01*
X500253Y296119D01*
X500303Y296201D01*
X500357Y296282D01*
X500413Y296360D01*
X500473Y296436D01*
X500535Y296510D01*
X500601Y296581D01*
X500669Y296649D01*
X500740Y296715D01*
X500814Y296777D01*
X500890Y296837D01*
X500968Y296893D01*
X501049Y296947D01*
X501132Y296997D01*
X501216Y297043D01*
X501303Y297086D01*
X501391Y297126D01*
X501480Y297162D01*
X501571Y297195D01*
X501664Y297223D01*
X501757Y297248D01*
X501851Y297270D01*
X501946Y297287D01*
X502042Y297301D01*
X502138Y297310D01*
X502234Y297316D01*
X502331Y297318D01*
X506169Y297318D01*
X506266Y297316D01*
X506362Y297310D01*
X506458Y297301D01*
X506554Y297287D01*
X506649Y297270D01*
X506743Y297248D01*
X506836Y297223D01*
X506929Y297195D01*
X507020Y297162D01*
X507109Y297126D01*
X507197Y297086D01*
X507284Y297043D01*
X507369Y296997D01*
X507451Y296947D01*
X507532Y296893D01*
X507610Y296837D01*
X507686Y296777D01*
X507760Y296715D01*
X507831Y296649D01*
X507899Y296581D01*
X507965Y296510D01*
X508027Y296436D01*
X508087Y296360D01*
X508143Y296282D01*
X508197Y296201D01*
X508247Y296119D01*
X508293Y296034D01*
X508336Y295947D01*
X508376Y295859D01*
X508412Y295770D01*
X508445Y295679D01*
X508473Y295586D01*
X508498Y295493D01*
X508520Y295399D01*
X508537Y295304D01*
X508551Y295208D01*
X508560Y295112D01*
X508566Y295016D01*
X508568Y294919D01*
X508568Y292520D01*
X529170Y277811D02*
X529170Y276371D01*
X529170Y277811D02*
X533968Y277811D01*
X533968Y274932D01*
X533966Y274846D01*
X533960Y274760D01*
X533951Y274674D01*
X533937Y274589D01*
X533920Y274505D01*
X533899Y274421D01*
X533874Y274339D01*
X533846Y274258D01*
X533814Y274178D01*
X533778Y274099D01*
X533739Y274023D01*
X533696Y273948D01*
X533651Y273875D01*
X533602Y273804D01*
X533549Y273736D01*
X533494Y273669D01*
X533436Y273606D01*
X533375Y273545D01*
X533312Y273487D01*
X533245Y273432D01*
X533177Y273380D01*
X533106Y273330D01*
X533033Y273285D01*
X532958Y273242D01*
X532882Y273203D01*
X532803Y273167D01*
X532723Y273135D01*
X532642Y273107D01*
X532560Y273082D01*
X532476Y273061D01*
X532392Y273044D01*
X532307Y273030D01*
X532221Y273021D01*
X532135Y273015D01*
X532049Y273013D01*
X527251Y273013D01*
X527165Y273015D01*
X527079Y273021D01*
X526993Y273030D01*
X526908Y273044D01*
X526824Y273061D01*
X526740Y273082D01*
X526658Y273107D01*
X526577Y273135D01*
X526497Y273167D01*
X526418Y273203D01*
X526342Y273242D01*
X526267Y273285D01*
X526194Y273330D01*
X526123Y273379D01*
X526055Y273432D01*
X525988Y273487D01*
X525925Y273545D01*
X525864Y273606D01*
X525806Y273669D01*
X525751Y273736D01*
X525699Y273804D01*
X525649Y273875D01*
X525604Y273948D01*
X525561Y274023D01*
X525522Y274099D01*
X525486Y274178D01*
X525454Y274258D01*
X525426Y274339D01*
X525401Y274421D01*
X525380Y274505D01*
X525363Y274589D01*
X525349Y274674D01*
X525340Y274760D01*
X525334Y274846D01*
X525332Y274932D01*
X525332Y277811D01*
X525332Y282767D02*
X533968Y282767D01*
X533968Y287564D02*
X525332Y282767D01*
X525332Y287564D02*
X533968Y287564D01*
X533968Y292520D02*
X525332Y292520D01*
X525332Y294919D01*
X525334Y295016D01*
X525340Y295112D01*
X525349Y295208D01*
X525363Y295304D01*
X525380Y295399D01*
X525402Y295493D01*
X525427Y295586D01*
X525455Y295679D01*
X525488Y295770D01*
X525524Y295859D01*
X525564Y295947D01*
X525607Y296034D01*
X525653Y296119D01*
X525703Y296201D01*
X525757Y296282D01*
X525813Y296360D01*
X525873Y296436D01*
X525935Y296510D01*
X526001Y296581D01*
X526069Y296649D01*
X526140Y296715D01*
X526214Y296777D01*
X526290Y296837D01*
X526368Y296893D01*
X526449Y296947D01*
X526532Y296997D01*
X526616Y297043D01*
X526703Y297086D01*
X526791Y297126D01*
X526880Y297162D01*
X526971Y297195D01*
X527064Y297223D01*
X527157Y297248D01*
X527251Y297270D01*
X527346Y297287D01*
X527442Y297301D01*
X527538Y297310D01*
X527634Y297316D01*
X527731Y297318D01*
X531569Y297318D01*
X531666Y297316D01*
X531762Y297310D01*
X531858Y297301D01*
X531954Y297287D01*
X532049Y297270D01*
X532143Y297248D01*
X532236Y297223D01*
X532329Y297195D01*
X532420Y297162D01*
X532509Y297126D01*
X532597Y297086D01*
X532684Y297043D01*
X532769Y296997D01*
X532851Y296947D01*
X532932Y296893D01*
X533010Y296837D01*
X533086Y296777D01*
X533160Y296715D01*
X533231Y296649D01*
X533299Y296581D01*
X533365Y296510D01*
X533427Y296436D01*
X533487Y296360D01*
X533543Y296282D01*
X533597Y296201D01*
X533647Y296119D01*
X533693Y296034D01*
X533736Y295947D01*
X533776Y295859D01*
X533812Y295770D01*
X533845Y295679D01*
X533873Y295586D01*
X533898Y295493D01*
X533920Y295399D01*
X533937Y295304D01*
X533951Y295208D01*
X533960Y295112D01*
X533966Y295016D01*
X533968Y294919D01*
X533968Y292520D01*
X479810Y278770D02*
X479810Y273013D01*
X482688Y275892D02*
X476931Y275892D01*
X483168Y283246D02*
X483168Y286125D01*
X483166Y286211D01*
X483160Y286297D01*
X483151Y286383D01*
X483137Y286468D01*
X483120Y286552D01*
X483099Y286636D01*
X483074Y286718D01*
X483046Y286799D01*
X483014Y286879D01*
X482978Y286958D01*
X482939Y287034D01*
X482896Y287109D01*
X482851Y287182D01*
X482802Y287253D01*
X482749Y287321D01*
X482694Y287388D01*
X482636Y287451D01*
X482575Y287512D01*
X482512Y287570D01*
X482445Y287625D01*
X482377Y287678D01*
X482306Y287727D01*
X482233Y287772D01*
X482158Y287815D01*
X482082Y287854D01*
X482003Y287890D01*
X481923Y287922D01*
X481842Y287950D01*
X481760Y287975D01*
X481676Y287996D01*
X481592Y288013D01*
X481507Y288027D01*
X481421Y288036D01*
X481335Y288042D01*
X481249Y288044D01*
X480289Y288044D01*
X480203Y288042D01*
X480117Y288036D01*
X480031Y288027D01*
X479946Y288013D01*
X479862Y287996D01*
X479778Y287975D01*
X479696Y287950D01*
X479615Y287922D01*
X479535Y287890D01*
X479456Y287854D01*
X479380Y287815D01*
X479305Y287772D01*
X479232Y287727D01*
X479161Y287678D01*
X479093Y287625D01*
X479026Y287570D01*
X478963Y287512D01*
X478902Y287451D01*
X478844Y287388D01*
X478789Y287321D01*
X478737Y287253D01*
X478687Y287182D01*
X478642Y287109D01*
X478599Y287034D01*
X478560Y286958D01*
X478524Y286879D01*
X478492Y286799D01*
X478464Y286718D01*
X478439Y286636D01*
X478418Y286552D01*
X478401Y286468D01*
X478387Y286383D01*
X478378Y286297D01*
X478372Y286211D01*
X478370Y286125D01*
X478370Y283246D01*
X474532Y283246D01*
X474532Y288044D01*
X474532Y291911D02*
X483168Y294789D01*
X474532Y297668D01*
X432368Y273013D02*
X423732Y273013D01*
X423732Y275412D01*
X423734Y275509D01*
X423740Y275605D01*
X423749Y275701D01*
X423763Y275797D01*
X423780Y275892D01*
X423802Y275986D01*
X423827Y276079D01*
X423855Y276172D01*
X423888Y276263D01*
X423924Y276352D01*
X423964Y276440D01*
X424007Y276527D01*
X424053Y276612D01*
X424103Y276694D01*
X424157Y276775D01*
X424213Y276853D01*
X424273Y276929D01*
X424335Y277003D01*
X424401Y277074D01*
X424469Y277142D01*
X424540Y277208D01*
X424614Y277270D01*
X424690Y277330D01*
X424768Y277386D01*
X424849Y277440D01*
X424932Y277490D01*
X425016Y277536D01*
X425103Y277579D01*
X425191Y277619D01*
X425280Y277655D01*
X425371Y277688D01*
X425464Y277716D01*
X425557Y277741D01*
X425651Y277763D01*
X425746Y277780D01*
X425842Y277794D01*
X425938Y277803D01*
X426034Y277809D01*
X426131Y277811D01*
X426228Y277809D01*
X426324Y277803D01*
X426420Y277794D01*
X426516Y277780D01*
X426611Y277763D01*
X426705Y277741D01*
X426798Y277716D01*
X426891Y277688D01*
X426982Y277655D01*
X427071Y277619D01*
X427159Y277579D01*
X427246Y277536D01*
X427331Y277490D01*
X427413Y277440D01*
X427494Y277386D01*
X427572Y277330D01*
X427648Y277270D01*
X427722Y277208D01*
X427793Y277142D01*
X427861Y277074D01*
X427927Y277003D01*
X427989Y276929D01*
X428049Y276853D01*
X428105Y276775D01*
X428159Y276694D01*
X428209Y276612D01*
X428255Y276527D01*
X428298Y276440D01*
X428338Y276352D01*
X428374Y276263D01*
X428407Y276172D01*
X428435Y276079D01*
X428460Y275986D01*
X428482Y275892D01*
X428499Y275797D01*
X428513Y275701D01*
X428522Y275605D01*
X428528Y275509D01*
X428530Y275412D01*
X428530Y273013D01*
X428530Y275892D02*
X432368Y277811D01*
X432368Y284646D02*
X432366Y284732D01*
X432360Y284818D01*
X432351Y284904D01*
X432337Y284989D01*
X432320Y285073D01*
X432299Y285157D01*
X432274Y285239D01*
X432246Y285320D01*
X432214Y285400D01*
X432178Y285479D01*
X432139Y285555D01*
X432096Y285630D01*
X432051Y285703D01*
X432002Y285774D01*
X431949Y285842D01*
X431894Y285909D01*
X431836Y285972D01*
X431775Y286033D01*
X431712Y286091D01*
X431645Y286146D01*
X431577Y286199D01*
X431506Y286248D01*
X431433Y286293D01*
X431358Y286336D01*
X431282Y286375D01*
X431203Y286411D01*
X431123Y286443D01*
X431042Y286471D01*
X430960Y286496D01*
X430876Y286517D01*
X430792Y286534D01*
X430707Y286548D01*
X430621Y286557D01*
X430535Y286563D01*
X430449Y286565D01*
X432368Y284646D02*
X432366Y284523D01*
X432361Y284400D01*
X432351Y284277D01*
X432338Y284155D01*
X432321Y284033D01*
X432301Y283911D01*
X432277Y283791D01*
X432249Y283671D01*
X432218Y283552D01*
X432182Y283434D01*
X432144Y283317D01*
X432102Y283201D01*
X432056Y283087D01*
X432007Y282974D01*
X431955Y282863D01*
X431899Y282753D01*
X431840Y282645D01*
X431777Y282539D01*
X431712Y282435D01*
X431643Y282332D01*
X431571Y282232D01*
X431496Y282135D01*
X431419Y282039D01*
X431338Y281946D01*
X431255Y281855D01*
X431169Y281767D01*
X425651Y282008D02*
X425565Y282010D01*
X425479Y282016D01*
X425393Y282025D01*
X425308Y282039D01*
X425224Y282056D01*
X425140Y282077D01*
X425058Y282102D01*
X424977Y282130D01*
X424897Y282162D01*
X424818Y282198D01*
X424742Y282237D01*
X424667Y282280D01*
X424594Y282325D01*
X424523Y282374D01*
X424455Y282427D01*
X424388Y282482D01*
X424325Y282540D01*
X424264Y282601D01*
X424206Y282664D01*
X424151Y282731D01*
X424098Y282799D01*
X424049Y282870D01*
X424004Y282943D01*
X423961Y283018D01*
X423922Y283094D01*
X423886Y283173D01*
X423854Y283253D01*
X423826Y283334D01*
X423801Y283416D01*
X423780Y283500D01*
X423763Y283584D01*
X423749Y283669D01*
X423740Y283755D01*
X423734Y283841D01*
X423732Y283927D01*
X423734Y284043D01*
X423739Y284158D01*
X423749Y284274D01*
X423762Y284389D01*
X423778Y284503D01*
X423799Y284617D01*
X423823Y284731D01*
X423851Y284843D01*
X423882Y284954D01*
X423917Y285065D01*
X423955Y285174D01*
X423997Y285282D01*
X424042Y285388D01*
X424091Y285494D01*
X424143Y285597D01*
X424198Y285699D01*
X424257Y285798D01*
X424319Y285896D01*
X424384Y285992D01*
X424452Y286086D01*
X427330Y282967D02*
X427284Y282892D01*
X427234Y282819D01*
X427181Y282749D01*
X427125Y282681D01*
X427066Y282616D01*
X427004Y282553D01*
X426940Y282494D01*
X426872Y282437D01*
X426802Y282383D01*
X426730Y282333D01*
X426656Y282286D01*
X426580Y282242D01*
X426501Y282202D01*
X426421Y282166D01*
X426340Y282133D01*
X426257Y282104D01*
X426172Y282078D01*
X426087Y282056D01*
X426001Y282039D01*
X425914Y282025D01*
X425827Y282015D01*
X425739Y282009D01*
X425651Y282007D01*
X428770Y285606D02*
X428816Y285680D01*
X428866Y285753D01*
X428919Y285823D01*
X428975Y285891D01*
X429034Y285956D01*
X429096Y286019D01*
X429161Y286078D01*
X429228Y286135D01*
X429298Y286189D01*
X429370Y286239D01*
X429444Y286286D01*
X429520Y286330D01*
X429599Y286370D01*
X429679Y286406D01*
X429760Y286439D01*
X429843Y286469D01*
X429928Y286494D01*
X430013Y286516D01*
X430099Y286533D01*
X430186Y286547D01*
X430273Y286557D01*
X430361Y286563D01*
X430449Y286565D01*
X428770Y285606D02*
X427330Y282967D01*
X423732Y292396D02*
X432368Y292396D01*
X423732Y289997D02*
X423732Y294795D01*
X550732Y273013D02*
X559368Y275892D01*
X550732Y278770D01*
X550732Y283207D02*
X559368Y283207D01*
X559368Y284166D02*
X559368Y282247D01*
X550732Y282247D02*
X550732Y284166D01*
X550732Y288428D02*
X559368Y288428D01*
X559368Y293226D02*
X550732Y288428D01*
X550732Y293226D02*
X559368Y293226D01*
X454410Y278770D02*
X454410Y273013D01*
X457288Y275892D02*
X451531Y275892D01*
X457768Y283246D02*
X457768Y285645D01*
X457766Y285742D01*
X457760Y285838D01*
X457751Y285934D01*
X457737Y286030D01*
X457720Y286125D01*
X457698Y286219D01*
X457673Y286312D01*
X457645Y286405D01*
X457612Y286496D01*
X457576Y286585D01*
X457536Y286673D01*
X457493Y286760D01*
X457447Y286845D01*
X457397Y286927D01*
X457343Y287008D01*
X457287Y287086D01*
X457227Y287162D01*
X457165Y287236D01*
X457099Y287307D01*
X457031Y287375D01*
X456960Y287441D01*
X456886Y287503D01*
X456810Y287563D01*
X456732Y287619D01*
X456651Y287673D01*
X456569Y287723D01*
X456484Y287769D01*
X456397Y287812D01*
X456309Y287852D01*
X456220Y287888D01*
X456129Y287921D01*
X456036Y287949D01*
X455943Y287974D01*
X455849Y287996D01*
X455754Y288013D01*
X455658Y288027D01*
X455562Y288036D01*
X455466Y288042D01*
X455369Y288044D01*
X455272Y288042D01*
X455176Y288036D01*
X455080Y288027D01*
X454984Y288013D01*
X454889Y287996D01*
X454795Y287974D01*
X454702Y287949D01*
X454609Y287921D01*
X454518Y287888D01*
X454429Y287852D01*
X454341Y287812D01*
X454254Y287769D01*
X454170Y287723D01*
X454087Y287673D01*
X454006Y287619D01*
X453928Y287563D01*
X453852Y287503D01*
X453778Y287441D01*
X453707Y287375D01*
X453639Y287307D01*
X453573Y287236D01*
X453511Y287162D01*
X453451Y287086D01*
X453395Y287008D01*
X453341Y286927D01*
X453291Y286845D01*
X453245Y286760D01*
X453202Y286673D01*
X453162Y286585D01*
X453126Y286496D01*
X453093Y286405D01*
X453065Y286312D01*
X453040Y286219D01*
X453018Y286125D01*
X453001Y286030D01*
X452987Y285934D01*
X452978Y285838D01*
X452972Y285742D01*
X452970Y285645D01*
X449132Y286125D02*
X449132Y283246D01*
X449132Y286125D02*
X449134Y286211D01*
X449140Y286297D01*
X449149Y286383D01*
X449163Y286468D01*
X449180Y286552D01*
X449201Y286636D01*
X449226Y286718D01*
X449254Y286799D01*
X449286Y286879D01*
X449322Y286958D01*
X449361Y287034D01*
X449404Y287109D01*
X449449Y287182D01*
X449498Y287253D01*
X449551Y287321D01*
X449606Y287388D01*
X449664Y287451D01*
X449725Y287512D01*
X449788Y287570D01*
X449855Y287625D01*
X449923Y287678D01*
X449994Y287727D01*
X450067Y287772D01*
X450142Y287815D01*
X450218Y287854D01*
X450297Y287890D01*
X450377Y287922D01*
X450458Y287950D01*
X450540Y287975D01*
X450624Y287996D01*
X450708Y288013D01*
X450793Y288027D01*
X450879Y288036D01*
X450965Y288042D01*
X451051Y288044D01*
X451137Y288042D01*
X451223Y288036D01*
X451309Y288027D01*
X451394Y288013D01*
X451478Y287996D01*
X451562Y287975D01*
X451644Y287950D01*
X451725Y287922D01*
X451805Y287890D01*
X451884Y287854D01*
X451960Y287815D01*
X452035Y287772D01*
X452108Y287727D01*
X452179Y287678D01*
X452247Y287625D01*
X452314Y287570D01*
X452377Y287512D01*
X452438Y287451D01*
X452496Y287388D01*
X452551Y287321D01*
X452604Y287253D01*
X452653Y287182D01*
X452698Y287109D01*
X452741Y287034D01*
X452780Y286958D01*
X452816Y286879D01*
X452848Y286799D01*
X452876Y286718D01*
X452901Y286636D01*
X452922Y286552D01*
X452939Y286468D01*
X452953Y286383D01*
X452962Y286297D01*
X452968Y286211D01*
X452970Y286125D01*
X452970Y284206D01*
X457288Y291806D02*
X457768Y291806D01*
X457288Y291806D02*
X457288Y292286D01*
X457768Y292286D01*
X457768Y291806D01*
X457768Y296048D02*
X457768Y298447D01*
X457766Y298544D01*
X457760Y298640D01*
X457751Y298736D01*
X457737Y298832D01*
X457720Y298927D01*
X457698Y299021D01*
X457673Y299114D01*
X457645Y299207D01*
X457612Y299298D01*
X457576Y299387D01*
X457536Y299475D01*
X457493Y299562D01*
X457447Y299647D01*
X457397Y299729D01*
X457343Y299810D01*
X457287Y299888D01*
X457227Y299964D01*
X457165Y300038D01*
X457099Y300109D01*
X457031Y300177D01*
X456960Y300243D01*
X456886Y300305D01*
X456810Y300365D01*
X456732Y300421D01*
X456651Y300475D01*
X456569Y300525D01*
X456484Y300571D01*
X456397Y300614D01*
X456309Y300654D01*
X456220Y300690D01*
X456129Y300723D01*
X456036Y300751D01*
X455943Y300776D01*
X455849Y300798D01*
X455754Y300815D01*
X455658Y300829D01*
X455562Y300838D01*
X455466Y300844D01*
X455369Y300846D01*
X455272Y300844D01*
X455176Y300838D01*
X455080Y300829D01*
X454984Y300815D01*
X454889Y300798D01*
X454795Y300776D01*
X454702Y300751D01*
X454609Y300723D01*
X454518Y300690D01*
X454429Y300654D01*
X454341Y300614D01*
X454254Y300571D01*
X454170Y300525D01*
X454087Y300475D01*
X454006Y300421D01*
X453928Y300365D01*
X453852Y300305D01*
X453778Y300243D01*
X453707Y300177D01*
X453639Y300109D01*
X453573Y300038D01*
X453511Y299964D01*
X453451Y299888D01*
X453395Y299810D01*
X453341Y299729D01*
X453291Y299647D01*
X453245Y299562D01*
X453202Y299475D01*
X453162Y299387D01*
X453126Y299298D01*
X453093Y299207D01*
X453065Y299114D01*
X453040Y299021D01*
X453018Y298927D01*
X453001Y298832D01*
X452987Y298736D01*
X452978Y298640D01*
X452972Y298544D01*
X452970Y298447D01*
X449132Y298927D02*
X449132Y296048D01*
X449132Y298927D02*
X449134Y299013D01*
X449140Y299099D01*
X449149Y299185D01*
X449163Y299270D01*
X449180Y299354D01*
X449201Y299438D01*
X449226Y299520D01*
X449254Y299601D01*
X449286Y299681D01*
X449322Y299760D01*
X449361Y299836D01*
X449404Y299911D01*
X449449Y299984D01*
X449498Y300055D01*
X449551Y300123D01*
X449606Y300190D01*
X449664Y300253D01*
X449725Y300314D01*
X449788Y300372D01*
X449855Y300427D01*
X449923Y300480D01*
X449994Y300529D01*
X450067Y300574D01*
X450142Y300617D01*
X450218Y300656D01*
X450297Y300692D01*
X450377Y300724D01*
X450458Y300752D01*
X450540Y300777D01*
X450624Y300798D01*
X450708Y300815D01*
X450793Y300829D01*
X450879Y300838D01*
X450965Y300844D01*
X451051Y300846D01*
X451137Y300844D01*
X451223Y300838D01*
X451309Y300829D01*
X451394Y300815D01*
X451478Y300798D01*
X451562Y300777D01*
X451644Y300752D01*
X451725Y300724D01*
X451805Y300692D01*
X451884Y300656D01*
X451960Y300617D01*
X452035Y300574D01*
X452108Y300529D01*
X452179Y300480D01*
X452247Y300427D01*
X452314Y300372D01*
X452377Y300314D01*
X452438Y300253D01*
X452496Y300190D01*
X452551Y300123D01*
X452604Y300055D01*
X452653Y299984D01*
X452698Y299911D01*
X452741Y299836D01*
X452780Y299760D01*
X452816Y299681D01*
X452848Y299601D01*
X452876Y299520D01*
X452901Y299438D01*
X452922Y299354D01*
X452939Y299270D01*
X452953Y299185D01*
X452962Y299099D01*
X452968Y299013D01*
X452970Y298927D01*
X452970Y297007D01*
X449132Y304712D02*
X457768Y307591D01*
X449132Y310469D01*
X602731Y273733D02*
X602885Y273660D01*
X603040Y273591D01*
X603197Y273526D01*
X603356Y273464D01*
X603515Y273407D01*
X603677Y273353D01*
X603839Y273303D01*
X604002Y273257D01*
X604167Y273215D01*
X604333Y273177D01*
X604499Y273142D01*
X604666Y273112D01*
X604834Y273086D01*
X605002Y273064D01*
X605171Y273045D01*
X605341Y273031D01*
X605510Y273021D01*
X605680Y273015D01*
X605850Y273013D01*
X602731Y273733D02*
X602655Y273761D01*
X602580Y273793D01*
X602506Y273828D01*
X602434Y273866D01*
X602364Y273908D01*
X602296Y273953D01*
X602230Y274001D01*
X602166Y274052D01*
X602105Y274106D01*
X602046Y274162D01*
X601990Y274222D01*
X601937Y274283D01*
X601887Y274347D01*
X601839Y274414D01*
X601795Y274482D01*
X601754Y274553D01*
X601716Y274625D01*
X601682Y274699D01*
X601651Y274774D01*
X601623Y274851D01*
X601599Y274929D01*
X601579Y275008D01*
X601562Y275088D01*
X601549Y275168D01*
X601539Y275249D01*
X601534Y275330D01*
X601532Y275412D01*
X601534Y275494D01*
X601539Y275575D01*
X601549Y275656D01*
X601562Y275736D01*
X601579Y275816D01*
X601599Y275895D01*
X601623Y275973D01*
X601651Y276050D01*
X601682Y276125D01*
X601716Y276199D01*
X601754Y276271D01*
X601795Y276342D01*
X601839Y276410D01*
X601887Y276477D01*
X601937Y276541D01*
X601990Y276602D01*
X602046Y276662D01*
X602105Y276718D01*
X602166Y276772D01*
X602230Y276823D01*
X602296Y276871D01*
X602364Y276916D01*
X602434Y276958D01*
X602506Y276996D01*
X602580Y277031D01*
X602655Y277063D01*
X602731Y277091D01*
X602885Y277164D01*
X603040Y277233D01*
X603197Y277298D01*
X603356Y277360D01*
X603515Y277417D01*
X603677Y277471D01*
X603839Y277521D01*
X604002Y277567D01*
X604167Y277609D01*
X604333Y277647D01*
X604499Y277682D01*
X604666Y277712D01*
X604834Y277738D01*
X605002Y277760D01*
X605171Y277779D01*
X605341Y277793D01*
X605510Y277803D01*
X605680Y277809D01*
X605850Y277811D01*
X605850Y273013D02*
X606020Y273015D01*
X606190Y273021D01*
X606359Y273031D01*
X606529Y273045D01*
X606698Y273064D01*
X606866Y273086D01*
X607034Y273112D01*
X607201Y273142D01*
X607367Y273177D01*
X607533Y273215D01*
X607698Y273257D01*
X607861Y273303D01*
X608023Y273353D01*
X608185Y273407D01*
X608344Y273464D01*
X608503Y273526D01*
X608660Y273591D01*
X608815Y273660D01*
X608969Y273733D01*
X609045Y273761D01*
X609120Y273793D01*
X609194Y273828D01*
X609266Y273866D01*
X609336Y273908D01*
X609404Y273953D01*
X609470Y274001D01*
X609534Y274052D01*
X609595Y274106D01*
X609654Y274162D01*
X609710Y274222D01*
X609763Y274283D01*
X609813Y274347D01*
X609861Y274414D01*
X609905Y274482D01*
X609946Y274553D01*
X609984Y274625D01*
X610018Y274699D01*
X610049Y274774D01*
X610077Y274851D01*
X610101Y274929D01*
X610121Y275008D01*
X610138Y275088D01*
X610151Y275168D01*
X610161Y275249D01*
X610166Y275330D01*
X610168Y275412D01*
X608969Y277091D02*
X608815Y277164D01*
X608660Y277233D01*
X608503Y277298D01*
X608344Y277360D01*
X608185Y277417D01*
X608023Y277471D01*
X607861Y277521D01*
X607698Y277567D01*
X607533Y277609D01*
X607367Y277647D01*
X607201Y277682D01*
X607034Y277712D01*
X606866Y277738D01*
X606698Y277760D01*
X606529Y277779D01*
X606359Y277793D01*
X606190Y277803D01*
X606020Y277809D01*
X605850Y277811D01*
X608969Y277091D02*
X609045Y277063D01*
X609120Y277031D01*
X609194Y276996D01*
X609266Y276958D01*
X609336Y276916D01*
X609404Y276871D01*
X609470Y276823D01*
X609534Y276772D01*
X609595Y276718D01*
X609654Y276662D01*
X609710Y276602D01*
X609763Y276541D01*
X609813Y276477D01*
X609861Y276410D01*
X609905Y276342D01*
X609946Y276271D01*
X609984Y276199D01*
X610018Y276125D01*
X610049Y276050D01*
X610077Y275973D01*
X610101Y275895D01*
X610121Y275816D01*
X610138Y275736D01*
X610151Y275656D01*
X610161Y275575D01*
X610166Y275494D01*
X610168Y275412D01*
X608249Y273493D02*
X603451Y277331D01*
X626932Y275412D02*
X628851Y273013D01*
X626932Y275412D02*
X635568Y275412D01*
X635568Y273013D02*
X635568Y277811D01*
X652332Y275652D02*
X652334Y275744D01*
X652340Y275835D01*
X652349Y275926D01*
X652363Y276017D01*
X652380Y276107D01*
X652402Y276196D01*
X652427Y276284D01*
X652455Y276371D01*
X652488Y276457D01*
X652524Y276541D01*
X652563Y276624D01*
X652606Y276705D01*
X652653Y276784D01*
X652702Y276861D01*
X652755Y276936D01*
X652811Y277008D01*
X652870Y277078D01*
X652932Y277146D01*
X652997Y277211D01*
X653065Y277273D01*
X653135Y277332D01*
X653207Y277388D01*
X653282Y277441D01*
X653359Y277490D01*
X653438Y277537D01*
X653519Y277580D01*
X653602Y277619D01*
X653686Y277655D01*
X653772Y277688D01*
X653859Y277716D01*
X653947Y277741D01*
X654036Y277763D01*
X654126Y277780D01*
X654217Y277794D01*
X654308Y277803D01*
X654399Y277809D01*
X654491Y277811D01*
X652332Y275652D02*
X652334Y275549D01*
X652340Y275447D01*
X652349Y275345D01*
X652362Y275243D01*
X652379Y275142D01*
X652400Y275041D01*
X652424Y274942D01*
X652453Y274843D01*
X652484Y274746D01*
X652520Y274649D01*
X652558Y274554D01*
X652601Y274461D01*
X652647Y274369D01*
X652696Y274279D01*
X652748Y274191D01*
X652804Y274104D01*
X652863Y274020D01*
X652924Y273939D01*
X652989Y273859D01*
X653057Y273782D01*
X653128Y273707D01*
X653201Y273636D01*
X653277Y273567D01*
X653355Y273500D01*
X653436Y273437D01*
X653519Y273377D01*
X653604Y273320D01*
X653691Y273266D01*
X653781Y273215D01*
X653872Y273168D01*
X653964Y273124D01*
X654059Y273083D01*
X654154Y273046D01*
X654251Y273013D01*
X656170Y277091D02*
X656104Y277158D01*
X656035Y277222D01*
X655964Y277283D01*
X655890Y277341D01*
X655814Y277396D01*
X655736Y277448D01*
X655656Y277497D01*
X655574Y277543D01*
X655490Y277585D01*
X655404Y277624D01*
X655317Y277659D01*
X655229Y277690D01*
X655139Y277718D01*
X655049Y277743D01*
X654957Y277764D01*
X654865Y277781D01*
X654772Y277794D01*
X654679Y277803D01*
X654585Y277809D01*
X654491Y277811D01*
X656170Y277091D02*
X660968Y273013D01*
X660968Y277811D01*
X686368Y275412D02*
X686368Y273013D01*
X686368Y275412D02*
X686366Y275509D01*
X686360Y275605D01*
X686351Y275701D01*
X686337Y275797D01*
X686320Y275892D01*
X686298Y275986D01*
X686273Y276079D01*
X686245Y276172D01*
X686212Y276263D01*
X686176Y276352D01*
X686136Y276440D01*
X686093Y276527D01*
X686047Y276612D01*
X685997Y276694D01*
X685943Y276775D01*
X685887Y276853D01*
X685827Y276929D01*
X685765Y277003D01*
X685699Y277074D01*
X685631Y277142D01*
X685560Y277208D01*
X685486Y277270D01*
X685410Y277330D01*
X685332Y277386D01*
X685251Y277440D01*
X685169Y277490D01*
X685084Y277536D01*
X684997Y277579D01*
X684909Y277619D01*
X684820Y277655D01*
X684729Y277688D01*
X684636Y277716D01*
X684543Y277741D01*
X684449Y277763D01*
X684354Y277780D01*
X684258Y277794D01*
X684162Y277803D01*
X684066Y277809D01*
X683969Y277811D01*
X683872Y277809D01*
X683776Y277803D01*
X683680Y277794D01*
X683584Y277780D01*
X683489Y277763D01*
X683395Y277741D01*
X683302Y277716D01*
X683209Y277688D01*
X683118Y277655D01*
X683029Y277619D01*
X682941Y277579D01*
X682854Y277536D01*
X682770Y277490D01*
X682687Y277440D01*
X682606Y277386D01*
X682528Y277330D01*
X682452Y277270D01*
X682378Y277208D01*
X682307Y277142D01*
X682239Y277074D01*
X682173Y277003D01*
X682111Y276929D01*
X682051Y276853D01*
X681995Y276775D01*
X681941Y276694D01*
X681891Y276612D01*
X681845Y276527D01*
X681802Y276440D01*
X681762Y276352D01*
X681726Y276263D01*
X681693Y276172D01*
X681665Y276079D01*
X681640Y275986D01*
X681618Y275892D01*
X681601Y275797D01*
X681587Y275701D01*
X681578Y275605D01*
X681572Y275509D01*
X681570Y275412D01*
X677732Y275892D02*
X677732Y273013D01*
X677732Y275892D02*
X677734Y275978D01*
X677740Y276064D01*
X677749Y276150D01*
X677763Y276235D01*
X677780Y276319D01*
X677801Y276403D01*
X677826Y276485D01*
X677854Y276566D01*
X677886Y276646D01*
X677922Y276725D01*
X677961Y276801D01*
X678004Y276876D01*
X678049Y276949D01*
X678098Y277020D01*
X678151Y277088D01*
X678206Y277155D01*
X678264Y277218D01*
X678325Y277279D01*
X678388Y277337D01*
X678455Y277392D01*
X678523Y277445D01*
X678594Y277494D01*
X678667Y277539D01*
X678742Y277582D01*
X678818Y277621D01*
X678897Y277657D01*
X678977Y277689D01*
X679058Y277717D01*
X679140Y277742D01*
X679224Y277763D01*
X679308Y277780D01*
X679393Y277794D01*
X679479Y277803D01*
X679565Y277809D01*
X679651Y277811D01*
X679737Y277809D01*
X679823Y277803D01*
X679909Y277794D01*
X679994Y277780D01*
X680078Y277763D01*
X680162Y277742D01*
X680244Y277717D01*
X680325Y277689D01*
X680405Y277657D01*
X680484Y277621D01*
X680560Y277582D01*
X680635Y277539D01*
X680708Y277494D01*
X680779Y277445D01*
X680847Y277392D01*
X680914Y277337D01*
X680977Y277279D01*
X681038Y277218D01*
X681096Y277155D01*
X681151Y277088D01*
X681204Y277020D01*
X681253Y276949D01*
X681298Y276876D01*
X681341Y276801D01*
X681380Y276725D01*
X681416Y276646D01*
X681448Y276566D01*
X681476Y276485D01*
X681501Y276403D01*
X681522Y276319D01*
X681539Y276235D01*
X681553Y276150D01*
X681562Y276064D01*
X681568Y275978D01*
X681570Y275892D01*
X681570Y273973D01*
X703132Y274932D02*
X709849Y273013D01*
X709849Y277811D01*
X707930Y276371D02*
X711768Y276371D01*
X737168Y275892D02*
X737168Y273013D01*
X737168Y275892D02*
X737166Y275978D01*
X737160Y276064D01*
X737151Y276150D01*
X737137Y276235D01*
X737120Y276319D01*
X737099Y276403D01*
X737074Y276485D01*
X737046Y276566D01*
X737014Y276646D01*
X736978Y276725D01*
X736939Y276801D01*
X736896Y276876D01*
X736851Y276949D01*
X736802Y277020D01*
X736749Y277088D01*
X736694Y277155D01*
X736636Y277218D01*
X736575Y277279D01*
X736512Y277337D01*
X736445Y277392D01*
X736377Y277445D01*
X736306Y277494D01*
X736233Y277539D01*
X736158Y277582D01*
X736082Y277621D01*
X736003Y277657D01*
X735923Y277689D01*
X735842Y277717D01*
X735760Y277742D01*
X735676Y277763D01*
X735592Y277780D01*
X735507Y277794D01*
X735421Y277803D01*
X735335Y277809D01*
X735249Y277811D01*
X734289Y277811D01*
X734203Y277809D01*
X734117Y277803D01*
X734031Y277794D01*
X733946Y277780D01*
X733862Y277763D01*
X733778Y277742D01*
X733696Y277717D01*
X733615Y277689D01*
X733535Y277657D01*
X733456Y277621D01*
X733380Y277582D01*
X733305Y277539D01*
X733232Y277494D01*
X733161Y277445D01*
X733093Y277392D01*
X733026Y277337D01*
X732963Y277279D01*
X732902Y277218D01*
X732844Y277155D01*
X732789Y277088D01*
X732737Y277020D01*
X732687Y276949D01*
X732642Y276876D01*
X732599Y276801D01*
X732560Y276725D01*
X732524Y276646D01*
X732492Y276566D01*
X732464Y276485D01*
X732439Y276403D01*
X732418Y276319D01*
X732401Y276235D01*
X732387Y276150D01*
X732378Y276064D01*
X732372Y275978D01*
X732370Y275892D01*
X732370Y273013D01*
X728532Y273013D01*
X728532Y277811D01*
X364070Y706600D02*
X364070Y708039D01*
X368868Y708039D01*
X368868Y705160D01*
X368866Y705074D01*
X368860Y704988D01*
X368851Y704902D01*
X368837Y704817D01*
X368820Y704733D01*
X368799Y704649D01*
X368774Y704567D01*
X368746Y704486D01*
X368714Y704406D01*
X368678Y704327D01*
X368639Y704251D01*
X368596Y704176D01*
X368551Y704103D01*
X368502Y704032D01*
X368449Y703964D01*
X368394Y703897D01*
X368336Y703834D01*
X368275Y703773D01*
X368212Y703715D01*
X368145Y703660D01*
X368077Y703608D01*
X368006Y703558D01*
X367933Y703513D01*
X367858Y703470D01*
X367782Y703431D01*
X367703Y703395D01*
X367623Y703363D01*
X367542Y703335D01*
X367460Y703310D01*
X367376Y703289D01*
X367292Y703272D01*
X367207Y703258D01*
X367121Y703249D01*
X367035Y703243D01*
X366949Y703241D01*
X362151Y703241D01*
X362065Y703243D01*
X361979Y703249D01*
X361893Y703258D01*
X361808Y703272D01*
X361724Y703289D01*
X361640Y703310D01*
X361558Y703335D01*
X361477Y703363D01*
X361397Y703395D01*
X361318Y703431D01*
X361242Y703470D01*
X361167Y703513D01*
X361094Y703558D01*
X361023Y703607D01*
X360955Y703660D01*
X360888Y703715D01*
X360825Y703773D01*
X360764Y703834D01*
X360706Y703897D01*
X360651Y703964D01*
X360599Y704032D01*
X360549Y704103D01*
X360504Y704176D01*
X360461Y704251D01*
X360422Y704327D01*
X360386Y704406D01*
X360354Y704486D01*
X360326Y704567D01*
X360301Y704649D01*
X360280Y704733D01*
X360263Y704817D01*
X360249Y704902D01*
X360240Y704988D01*
X360234Y705074D01*
X360232Y705160D01*
X360232Y708039D01*
X360232Y712995D02*
X368868Y712995D01*
X368868Y717792D02*
X360232Y712995D01*
X360232Y717792D02*
X368868Y717792D01*
X368868Y722748D02*
X360232Y722748D01*
X360232Y725147D01*
X360234Y725244D01*
X360240Y725340D01*
X360249Y725436D01*
X360263Y725532D01*
X360280Y725627D01*
X360302Y725721D01*
X360327Y725814D01*
X360355Y725907D01*
X360388Y725998D01*
X360424Y726087D01*
X360464Y726175D01*
X360507Y726262D01*
X360553Y726347D01*
X360603Y726429D01*
X360657Y726510D01*
X360713Y726588D01*
X360773Y726664D01*
X360835Y726738D01*
X360901Y726809D01*
X360969Y726877D01*
X361040Y726943D01*
X361114Y727005D01*
X361190Y727065D01*
X361268Y727121D01*
X361349Y727175D01*
X361432Y727225D01*
X361516Y727271D01*
X361603Y727314D01*
X361691Y727354D01*
X361780Y727390D01*
X361871Y727423D01*
X361964Y727451D01*
X362057Y727476D01*
X362151Y727498D01*
X362246Y727515D01*
X362342Y727529D01*
X362438Y727538D01*
X362534Y727544D01*
X362631Y727546D01*
X366469Y727546D01*
X366566Y727544D01*
X366662Y727538D01*
X366758Y727529D01*
X366854Y727515D01*
X366949Y727498D01*
X367043Y727476D01*
X367136Y727451D01*
X367229Y727423D01*
X367320Y727390D01*
X367409Y727354D01*
X367497Y727314D01*
X367584Y727271D01*
X367669Y727225D01*
X367751Y727175D01*
X367832Y727121D01*
X367910Y727065D01*
X367986Y727005D01*
X368060Y726943D01*
X368131Y726877D01*
X368199Y726809D01*
X368265Y726738D01*
X368327Y726664D01*
X368387Y726588D01*
X368443Y726510D01*
X368497Y726429D01*
X368547Y726347D01*
X368593Y726262D01*
X368636Y726175D01*
X368676Y726087D01*
X368712Y725998D01*
X368745Y725907D01*
X368773Y725814D01*
X368798Y725721D01*
X368820Y725627D01*
X368837Y725532D01*
X368851Y725436D01*
X368860Y725340D01*
X368866Y725244D01*
X368868Y725147D01*
X368868Y722748D01*
X385632Y716003D02*
X387551Y713604D01*
X385632Y716003D02*
X394268Y716003D01*
X394268Y713604D02*
X394268Y718402D01*
X394268Y722748D02*
X394268Y725147D01*
X394266Y725244D01*
X394260Y725340D01*
X394251Y725436D01*
X394237Y725532D01*
X394220Y725627D01*
X394198Y725721D01*
X394173Y725814D01*
X394145Y725907D01*
X394112Y725998D01*
X394076Y726087D01*
X394036Y726175D01*
X393993Y726262D01*
X393947Y726347D01*
X393897Y726429D01*
X393843Y726510D01*
X393787Y726588D01*
X393727Y726664D01*
X393665Y726738D01*
X393599Y726809D01*
X393531Y726877D01*
X393460Y726943D01*
X393386Y727005D01*
X393310Y727065D01*
X393232Y727121D01*
X393151Y727175D01*
X393069Y727225D01*
X392984Y727271D01*
X392897Y727314D01*
X392809Y727354D01*
X392720Y727390D01*
X392629Y727423D01*
X392536Y727451D01*
X392443Y727476D01*
X392349Y727498D01*
X392254Y727515D01*
X392158Y727529D01*
X392062Y727538D01*
X391966Y727544D01*
X391869Y727546D01*
X391772Y727544D01*
X391676Y727538D01*
X391580Y727529D01*
X391484Y727515D01*
X391389Y727498D01*
X391295Y727476D01*
X391202Y727451D01*
X391109Y727423D01*
X391018Y727390D01*
X390929Y727354D01*
X390841Y727314D01*
X390754Y727271D01*
X390670Y727225D01*
X390587Y727175D01*
X390506Y727121D01*
X390428Y727065D01*
X390352Y727005D01*
X390278Y726943D01*
X390207Y726877D01*
X390139Y726809D01*
X390073Y726738D01*
X390011Y726664D01*
X389951Y726588D01*
X389895Y726510D01*
X389841Y726429D01*
X389791Y726347D01*
X389745Y726262D01*
X389702Y726175D01*
X389662Y726087D01*
X389626Y725998D01*
X389593Y725907D01*
X389565Y725814D01*
X389540Y725721D01*
X389518Y725627D01*
X389501Y725532D01*
X389487Y725436D01*
X389478Y725340D01*
X389472Y725244D01*
X389470Y725147D01*
X385632Y725627D02*
X385632Y722748D01*
X385632Y725627D02*
X385634Y725713D01*
X385640Y725799D01*
X385649Y725885D01*
X385663Y725970D01*
X385680Y726054D01*
X385701Y726138D01*
X385726Y726220D01*
X385754Y726301D01*
X385786Y726381D01*
X385822Y726460D01*
X385861Y726536D01*
X385904Y726611D01*
X385949Y726684D01*
X385998Y726755D01*
X386051Y726823D01*
X386106Y726890D01*
X386164Y726953D01*
X386225Y727014D01*
X386288Y727072D01*
X386355Y727127D01*
X386423Y727180D01*
X386494Y727229D01*
X386567Y727274D01*
X386642Y727317D01*
X386718Y727356D01*
X386797Y727392D01*
X386877Y727424D01*
X386958Y727452D01*
X387040Y727477D01*
X387124Y727498D01*
X387208Y727515D01*
X387293Y727529D01*
X387379Y727538D01*
X387465Y727544D01*
X387551Y727546D01*
X387637Y727544D01*
X387723Y727538D01*
X387809Y727529D01*
X387894Y727515D01*
X387978Y727498D01*
X388062Y727477D01*
X388144Y727452D01*
X388225Y727424D01*
X388305Y727392D01*
X388384Y727356D01*
X388460Y727317D01*
X388535Y727274D01*
X388608Y727229D01*
X388679Y727180D01*
X388747Y727127D01*
X388814Y727072D01*
X388877Y727014D01*
X388938Y726953D01*
X388996Y726890D01*
X389051Y726823D01*
X389104Y726755D01*
X389153Y726684D01*
X389198Y726611D01*
X389241Y726536D01*
X389280Y726460D01*
X389316Y726381D01*
X389348Y726301D01*
X389376Y726220D01*
X389401Y726138D01*
X389422Y726054D01*
X389439Y725970D01*
X389453Y725885D01*
X389462Y725799D01*
X389468Y725713D01*
X389470Y725627D01*
X389470Y723708D01*
X411032Y716003D02*
X412951Y713604D01*
X411032Y716003D02*
X419668Y716003D01*
X419668Y713604D02*
X419668Y718402D01*
X411032Y725387D02*
X411034Y725479D01*
X411040Y725570D01*
X411049Y725661D01*
X411063Y725752D01*
X411080Y725842D01*
X411102Y725931D01*
X411127Y726019D01*
X411155Y726106D01*
X411188Y726192D01*
X411224Y726276D01*
X411263Y726359D01*
X411306Y726440D01*
X411353Y726519D01*
X411402Y726596D01*
X411455Y726671D01*
X411511Y726743D01*
X411570Y726813D01*
X411632Y726881D01*
X411697Y726946D01*
X411765Y727008D01*
X411835Y727067D01*
X411907Y727123D01*
X411982Y727176D01*
X412059Y727225D01*
X412138Y727272D01*
X412219Y727315D01*
X412302Y727354D01*
X412386Y727390D01*
X412472Y727423D01*
X412559Y727451D01*
X412647Y727476D01*
X412736Y727498D01*
X412826Y727515D01*
X412917Y727529D01*
X413008Y727538D01*
X413099Y727544D01*
X413191Y727546D01*
X411032Y725387D02*
X411034Y725284D01*
X411040Y725182D01*
X411049Y725080D01*
X411062Y724978D01*
X411079Y724877D01*
X411100Y724776D01*
X411124Y724677D01*
X411153Y724578D01*
X411184Y724481D01*
X411220Y724384D01*
X411258Y724289D01*
X411301Y724196D01*
X411347Y724104D01*
X411396Y724014D01*
X411448Y723926D01*
X411504Y723839D01*
X411563Y723755D01*
X411624Y723674D01*
X411689Y723594D01*
X411757Y723517D01*
X411828Y723442D01*
X411901Y723371D01*
X411977Y723302D01*
X412055Y723235D01*
X412136Y723172D01*
X412219Y723112D01*
X412304Y723055D01*
X412391Y723001D01*
X412481Y722950D01*
X412572Y722903D01*
X412664Y722859D01*
X412759Y722818D01*
X412854Y722781D01*
X412951Y722748D01*
X414870Y726826D02*
X414804Y726893D01*
X414735Y726957D01*
X414664Y727018D01*
X414590Y727076D01*
X414514Y727131D01*
X414436Y727183D01*
X414356Y727232D01*
X414274Y727278D01*
X414190Y727320D01*
X414104Y727359D01*
X414017Y727394D01*
X413929Y727425D01*
X413839Y727453D01*
X413749Y727478D01*
X413657Y727499D01*
X413565Y727516D01*
X413472Y727529D01*
X413379Y727538D01*
X413285Y727544D01*
X413191Y727546D01*
X414870Y726826D02*
X419668Y722748D01*
X419668Y727546D01*
X436432Y716003D02*
X438351Y713604D01*
X436432Y716003D02*
X445068Y716003D01*
X445068Y713604D02*
X445068Y718402D01*
X438351Y722748D02*
X436432Y725147D01*
X445068Y725147D01*
X445068Y722748D02*
X445068Y727546D01*
X343468Y696380D02*
X334832Y699258D01*
X343468Y702137D01*
X341309Y701417D02*
X341309Y697099D01*
X343468Y706393D02*
X334832Y706393D01*
X334832Y708792D01*
X334834Y708889D01*
X334840Y708985D01*
X334849Y709081D01*
X334863Y709177D01*
X334880Y709272D01*
X334902Y709366D01*
X334927Y709459D01*
X334955Y709552D01*
X334988Y709643D01*
X335024Y709732D01*
X335064Y709820D01*
X335107Y709907D01*
X335153Y709992D01*
X335203Y710074D01*
X335257Y710155D01*
X335313Y710233D01*
X335373Y710309D01*
X335435Y710383D01*
X335501Y710454D01*
X335569Y710522D01*
X335640Y710588D01*
X335714Y710650D01*
X335790Y710710D01*
X335868Y710766D01*
X335949Y710820D01*
X336032Y710870D01*
X336116Y710916D01*
X336203Y710959D01*
X336291Y710999D01*
X336380Y711035D01*
X336471Y711068D01*
X336564Y711096D01*
X336657Y711121D01*
X336751Y711143D01*
X336846Y711160D01*
X336942Y711174D01*
X337038Y711183D01*
X337134Y711189D01*
X337231Y711191D01*
X337328Y711189D01*
X337424Y711183D01*
X337520Y711174D01*
X337616Y711160D01*
X337711Y711143D01*
X337805Y711121D01*
X337898Y711096D01*
X337991Y711068D01*
X338082Y711035D01*
X338171Y710999D01*
X338259Y710959D01*
X338346Y710916D01*
X338431Y710870D01*
X338513Y710820D01*
X338594Y710766D01*
X338672Y710710D01*
X338748Y710650D01*
X338822Y710588D01*
X338893Y710522D01*
X338961Y710454D01*
X339027Y710383D01*
X339089Y710309D01*
X339149Y710233D01*
X339205Y710155D01*
X339259Y710074D01*
X339309Y709992D01*
X339355Y709907D01*
X339398Y709820D01*
X339438Y709732D01*
X339474Y709643D01*
X339507Y709552D01*
X339535Y709459D01*
X339560Y709366D01*
X339582Y709272D01*
X339599Y709177D01*
X339613Y709081D01*
X339622Y708985D01*
X339628Y708889D01*
X339630Y708792D01*
X339630Y706393D01*
X339630Y709272D02*
X343468Y711191D01*
X343468Y715783D02*
X343468Y719621D01*
X343468Y715783D02*
X334832Y715783D01*
X334832Y719621D01*
X338670Y718662D02*
X338670Y715783D01*
X334832Y723708D02*
X343468Y723708D01*
X334832Y723708D02*
X334832Y727546D01*
X338670Y727546D02*
X338670Y723708D01*
X461832Y716003D02*
X463751Y713604D01*
X461832Y716003D02*
X470468Y716003D01*
X470468Y713604D02*
X470468Y718402D01*
X466150Y722748D02*
X465980Y722750D01*
X465810Y722756D01*
X465641Y722766D01*
X465471Y722780D01*
X465302Y722799D01*
X465134Y722821D01*
X464966Y722847D01*
X464799Y722877D01*
X464633Y722912D01*
X464467Y722950D01*
X464302Y722992D01*
X464139Y723038D01*
X463977Y723088D01*
X463815Y723142D01*
X463656Y723199D01*
X463497Y723261D01*
X463340Y723326D01*
X463185Y723395D01*
X463031Y723468D01*
X462955Y723496D01*
X462880Y723528D01*
X462806Y723563D01*
X462734Y723601D01*
X462664Y723643D01*
X462596Y723688D01*
X462530Y723736D01*
X462466Y723787D01*
X462405Y723841D01*
X462346Y723897D01*
X462290Y723957D01*
X462237Y724018D01*
X462187Y724082D01*
X462139Y724149D01*
X462095Y724217D01*
X462054Y724288D01*
X462016Y724360D01*
X461982Y724434D01*
X461951Y724509D01*
X461923Y724586D01*
X461899Y724664D01*
X461879Y724743D01*
X461862Y724823D01*
X461849Y724903D01*
X461839Y724984D01*
X461834Y725065D01*
X461832Y725147D01*
X461834Y725229D01*
X461839Y725310D01*
X461849Y725391D01*
X461862Y725471D01*
X461879Y725551D01*
X461899Y725630D01*
X461923Y725708D01*
X461951Y725785D01*
X461982Y725860D01*
X462016Y725934D01*
X462054Y726006D01*
X462095Y726077D01*
X462139Y726145D01*
X462187Y726212D01*
X462237Y726276D01*
X462290Y726337D01*
X462346Y726397D01*
X462405Y726453D01*
X462466Y726507D01*
X462530Y726558D01*
X462596Y726606D01*
X462664Y726651D01*
X462734Y726693D01*
X462806Y726731D01*
X462880Y726766D01*
X462955Y726798D01*
X463031Y726826D01*
X463185Y726899D01*
X463340Y726968D01*
X463497Y727033D01*
X463656Y727095D01*
X463815Y727152D01*
X463977Y727206D01*
X464139Y727256D01*
X464302Y727302D01*
X464467Y727344D01*
X464633Y727382D01*
X464799Y727417D01*
X464966Y727447D01*
X465134Y727473D01*
X465302Y727495D01*
X465471Y727514D01*
X465641Y727528D01*
X465810Y727538D01*
X465980Y727544D01*
X466150Y727546D01*
X466150Y722748D02*
X466320Y722750D01*
X466490Y722756D01*
X466659Y722766D01*
X466829Y722780D01*
X466998Y722799D01*
X467166Y722821D01*
X467334Y722847D01*
X467501Y722877D01*
X467667Y722912D01*
X467833Y722950D01*
X467998Y722992D01*
X468161Y723038D01*
X468323Y723088D01*
X468485Y723142D01*
X468644Y723199D01*
X468803Y723261D01*
X468960Y723326D01*
X469115Y723395D01*
X469269Y723468D01*
X469345Y723496D01*
X469420Y723528D01*
X469494Y723563D01*
X469566Y723601D01*
X469636Y723643D01*
X469704Y723688D01*
X469770Y723736D01*
X469834Y723787D01*
X469895Y723841D01*
X469954Y723897D01*
X470010Y723957D01*
X470063Y724018D01*
X470113Y724082D01*
X470161Y724149D01*
X470205Y724217D01*
X470246Y724288D01*
X470284Y724360D01*
X470318Y724434D01*
X470349Y724509D01*
X470377Y724586D01*
X470401Y724664D01*
X470421Y724743D01*
X470438Y724823D01*
X470451Y724903D01*
X470461Y724984D01*
X470466Y725065D01*
X470468Y725147D01*
X469269Y726826D02*
X469115Y726899D01*
X468960Y726968D01*
X468803Y727033D01*
X468644Y727095D01*
X468485Y727152D01*
X468323Y727206D01*
X468161Y727256D01*
X467998Y727302D01*
X467833Y727344D01*
X467667Y727382D01*
X467501Y727417D01*
X467334Y727447D01*
X467166Y727473D01*
X466998Y727495D01*
X466829Y727514D01*
X466659Y727528D01*
X466490Y727538D01*
X466320Y727544D01*
X466150Y727546D01*
X469269Y726826D02*
X469345Y726798D01*
X469420Y726766D01*
X469494Y726731D01*
X469566Y726693D01*
X469636Y726651D01*
X469704Y726606D01*
X469770Y726558D01*
X469834Y726507D01*
X469895Y726453D01*
X469954Y726397D01*
X470010Y726337D01*
X470063Y726276D01*
X470113Y726212D01*
X470161Y726145D01*
X470205Y726077D01*
X470246Y726006D01*
X470284Y725934D01*
X470318Y725860D01*
X470349Y725785D01*
X470377Y725708D01*
X470401Y725630D01*
X470421Y725551D01*
X470438Y725471D01*
X470451Y725391D01*
X470461Y725310D01*
X470466Y725229D01*
X470468Y725147D01*
X468549Y723228D02*
X463751Y727066D01*
X492030Y727546D02*
X492030Y724667D01*
X492028Y724581D01*
X492022Y724495D01*
X492013Y724409D01*
X491999Y724324D01*
X491982Y724240D01*
X491961Y724156D01*
X491936Y724074D01*
X491908Y723993D01*
X491876Y723913D01*
X491840Y723834D01*
X491801Y723758D01*
X491758Y723683D01*
X491713Y723610D01*
X491664Y723539D01*
X491611Y723471D01*
X491556Y723404D01*
X491498Y723341D01*
X491437Y723280D01*
X491374Y723222D01*
X491307Y723167D01*
X491239Y723115D01*
X491168Y723065D01*
X491095Y723020D01*
X491020Y722977D01*
X490944Y722938D01*
X490865Y722902D01*
X490785Y722870D01*
X490704Y722842D01*
X490622Y722817D01*
X490538Y722796D01*
X490454Y722779D01*
X490369Y722765D01*
X490283Y722756D01*
X490197Y722750D01*
X490111Y722748D01*
X489631Y722748D01*
X489534Y722750D01*
X489438Y722756D01*
X489342Y722765D01*
X489246Y722779D01*
X489151Y722796D01*
X489057Y722818D01*
X488964Y722843D01*
X488871Y722871D01*
X488780Y722904D01*
X488691Y722940D01*
X488603Y722980D01*
X488516Y723023D01*
X488432Y723069D01*
X488349Y723119D01*
X488268Y723173D01*
X488190Y723229D01*
X488114Y723289D01*
X488040Y723351D01*
X487969Y723417D01*
X487901Y723485D01*
X487835Y723556D01*
X487773Y723630D01*
X487713Y723706D01*
X487657Y723784D01*
X487603Y723865D01*
X487553Y723948D01*
X487507Y724032D01*
X487464Y724119D01*
X487424Y724207D01*
X487388Y724296D01*
X487355Y724387D01*
X487327Y724480D01*
X487302Y724573D01*
X487280Y724667D01*
X487263Y724762D01*
X487249Y724858D01*
X487240Y724954D01*
X487234Y725050D01*
X487232Y725147D01*
X487234Y725244D01*
X487240Y725340D01*
X487249Y725436D01*
X487263Y725532D01*
X487280Y725627D01*
X487302Y725721D01*
X487327Y725814D01*
X487355Y725907D01*
X487388Y725998D01*
X487424Y726087D01*
X487464Y726175D01*
X487507Y726262D01*
X487553Y726347D01*
X487603Y726429D01*
X487657Y726510D01*
X487713Y726588D01*
X487773Y726664D01*
X487835Y726738D01*
X487901Y726809D01*
X487969Y726877D01*
X488040Y726943D01*
X488114Y727005D01*
X488190Y727065D01*
X488268Y727121D01*
X488349Y727175D01*
X488432Y727225D01*
X488516Y727271D01*
X488603Y727314D01*
X488691Y727354D01*
X488780Y727390D01*
X488871Y727423D01*
X488964Y727451D01*
X489057Y727476D01*
X489151Y727498D01*
X489246Y727515D01*
X489342Y727529D01*
X489438Y727538D01*
X489534Y727544D01*
X489631Y727546D01*
X492030Y727546D01*
X492153Y727544D01*
X492276Y727538D01*
X492399Y727528D01*
X492521Y727514D01*
X492643Y727497D01*
X492764Y727475D01*
X492884Y727450D01*
X493004Y727420D01*
X493122Y727387D01*
X493239Y727350D01*
X493356Y727310D01*
X493470Y727266D01*
X493584Y727218D01*
X493695Y727166D01*
X493805Y727111D01*
X493913Y727052D01*
X494020Y726990D01*
X494124Y726925D01*
X494226Y726856D01*
X494326Y726784D01*
X494423Y726709D01*
X494518Y726630D01*
X494610Y726549D01*
X494700Y726465D01*
X494787Y726378D01*
X494871Y726288D01*
X494952Y726196D01*
X495031Y726101D01*
X495106Y726004D01*
X495178Y725904D01*
X495247Y725802D01*
X495312Y725698D01*
X495374Y725591D01*
X495433Y725483D01*
X495488Y725373D01*
X495540Y725262D01*
X495588Y725148D01*
X495632Y725034D01*
X495672Y724917D01*
X495709Y724800D01*
X495742Y724682D01*
X495772Y724562D01*
X495797Y724442D01*
X495819Y724321D01*
X495836Y724199D01*
X495850Y724077D01*
X495860Y723954D01*
X495866Y723831D01*
X495868Y723708D01*
X518869Y722748D02*
X518772Y722750D01*
X518676Y722756D01*
X518580Y722765D01*
X518484Y722779D01*
X518389Y722796D01*
X518295Y722818D01*
X518202Y722843D01*
X518109Y722871D01*
X518018Y722904D01*
X517929Y722940D01*
X517841Y722980D01*
X517754Y723023D01*
X517670Y723069D01*
X517587Y723119D01*
X517506Y723173D01*
X517428Y723229D01*
X517352Y723289D01*
X517278Y723351D01*
X517207Y723417D01*
X517139Y723485D01*
X517073Y723556D01*
X517011Y723630D01*
X516951Y723706D01*
X516895Y723784D01*
X516841Y723865D01*
X516791Y723948D01*
X516745Y724032D01*
X516702Y724119D01*
X516662Y724207D01*
X516626Y724296D01*
X516593Y724387D01*
X516565Y724480D01*
X516540Y724573D01*
X516518Y724667D01*
X516501Y724762D01*
X516487Y724858D01*
X516478Y724954D01*
X516472Y725050D01*
X516470Y725147D01*
X516472Y725244D01*
X516478Y725340D01*
X516487Y725436D01*
X516501Y725532D01*
X516518Y725627D01*
X516540Y725721D01*
X516565Y725814D01*
X516593Y725907D01*
X516626Y725998D01*
X516662Y726087D01*
X516702Y726175D01*
X516745Y726262D01*
X516791Y726347D01*
X516841Y726429D01*
X516895Y726510D01*
X516951Y726588D01*
X517011Y726664D01*
X517073Y726738D01*
X517139Y726809D01*
X517207Y726877D01*
X517278Y726943D01*
X517352Y727005D01*
X517428Y727065D01*
X517506Y727121D01*
X517587Y727175D01*
X517670Y727225D01*
X517754Y727271D01*
X517841Y727314D01*
X517929Y727354D01*
X518018Y727390D01*
X518109Y727423D01*
X518202Y727451D01*
X518295Y727476D01*
X518389Y727498D01*
X518484Y727515D01*
X518580Y727529D01*
X518676Y727538D01*
X518772Y727544D01*
X518869Y727546D01*
X518966Y727544D01*
X519062Y727538D01*
X519158Y727529D01*
X519254Y727515D01*
X519349Y727498D01*
X519443Y727476D01*
X519536Y727451D01*
X519629Y727423D01*
X519720Y727390D01*
X519809Y727354D01*
X519897Y727314D01*
X519984Y727271D01*
X520069Y727225D01*
X520151Y727175D01*
X520232Y727121D01*
X520310Y727065D01*
X520386Y727005D01*
X520460Y726943D01*
X520531Y726877D01*
X520599Y726809D01*
X520665Y726738D01*
X520727Y726664D01*
X520787Y726588D01*
X520843Y726510D01*
X520897Y726429D01*
X520947Y726347D01*
X520993Y726262D01*
X521036Y726175D01*
X521076Y726087D01*
X521112Y725998D01*
X521145Y725907D01*
X521173Y725814D01*
X521198Y725721D01*
X521220Y725627D01*
X521237Y725532D01*
X521251Y725436D01*
X521260Y725340D01*
X521266Y725244D01*
X521268Y725147D01*
X521266Y725050D01*
X521260Y724954D01*
X521251Y724858D01*
X521237Y724762D01*
X521220Y724667D01*
X521198Y724573D01*
X521173Y724480D01*
X521145Y724387D01*
X521112Y724296D01*
X521076Y724207D01*
X521036Y724119D01*
X520993Y724032D01*
X520947Y723948D01*
X520897Y723865D01*
X520843Y723784D01*
X520787Y723706D01*
X520727Y723630D01*
X520665Y723556D01*
X520599Y723485D01*
X520531Y723417D01*
X520460Y723351D01*
X520386Y723289D01*
X520310Y723229D01*
X520232Y723173D01*
X520151Y723119D01*
X520069Y723069D01*
X519984Y723023D01*
X519897Y722980D01*
X519809Y722940D01*
X519720Y722904D01*
X519629Y722871D01*
X519536Y722843D01*
X519443Y722818D01*
X519349Y722796D01*
X519254Y722779D01*
X519158Y722765D01*
X519062Y722756D01*
X518966Y722750D01*
X518869Y722748D01*
X514551Y723228D02*
X514465Y723230D01*
X514379Y723236D01*
X514293Y723245D01*
X514208Y723259D01*
X514124Y723276D01*
X514040Y723297D01*
X513958Y723322D01*
X513877Y723350D01*
X513797Y723382D01*
X513718Y723418D01*
X513642Y723457D01*
X513567Y723500D01*
X513494Y723545D01*
X513423Y723594D01*
X513355Y723647D01*
X513288Y723702D01*
X513225Y723760D01*
X513164Y723821D01*
X513106Y723884D01*
X513051Y723951D01*
X512998Y724019D01*
X512949Y724090D01*
X512904Y724163D01*
X512861Y724238D01*
X512822Y724314D01*
X512786Y724393D01*
X512754Y724473D01*
X512726Y724554D01*
X512701Y724636D01*
X512680Y724720D01*
X512663Y724804D01*
X512649Y724889D01*
X512640Y724975D01*
X512634Y725061D01*
X512632Y725147D01*
X512634Y725233D01*
X512640Y725319D01*
X512649Y725405D01*
X512663Y725490D01*
X512680Y725574D01*
X512701Y725658D01*
X512726Y725740D01*
X512754Y725821D01*
X512786Y725901D01*
X512822Y725980D01*
X512861Y726056D01*
X512904Y726131D01*
X512949Y726204D01*
X512998Y726275D01*
X513051Y726343D01*
X513106Y726410D01*
X513164Y726473D01*
X513225Y726534D01*
X513288Y726592D01*
X513355Y726647D01*
X513423Y726700D01*
X513494Y726749D01*
X513567Y726794D01*
X513642Y726837D01*
X513718Y726876D01*
X513797Y726912D01*
X513877Y726944D01*
X513958Y726972D01*
X514040Y726997D01*
X514124Y727018D01*
X514208Y727035D01*
X514293Y727049D01*
X514379Y727058D01*
X514465Y727064D01*
X514551Y727066D01*
X514637Y727064D01*
X514723Y727058D01*
X514809Y727049D01*
X514894Y727035D01*
X514978Y727018D01*
X515062Y726997D01*
X515144Y726972D01*
X515225Y726944D01*
X515305Y726912D01*
X515384Y726876D01*
X515460Y726837D01*
X515535Y726794D01*
X515608Y726749D01*
X515679Y726700D01*
X515747Y726647D01*
X515814Y726592D01*
X515877Y726534D01*
X515938Y726473D01*
X515996Y726410D01*
X516051Y726343D01*
X516104Y726275D01*
X516153Y726204D01*
X516198Y726131D01*
X516241Y726056D01*
X516280Y725980D01*
X516316Y725901D01*
X516348Y725821D01*
X516376Y725740D01*
X516401Y725658D01*
X516422Y725574D01*
X516439Y725490D01*
X516453Y725405D01*
X516462Y725319D01*
X516468Y725233D01*
X516470Y725147D01*
X516468Y725061D01*
X516462Y724975D01*
X516453Y724889D01*
X516439Y724804D01*
X516422Y724720D01*
X516401Y724636D01*
X516376Y724554D01*
X516348Y724473D01*
X516316Y724393D01*
X516280Y724314D01*
X516241Y724238D01*
X516198Y724163D01*
X516153Y724090D01*
X516104Y724019D01*
X516051Y723951D01*
X515996Y723884D01*
X515938Y723821D01*
X515877Y723760D01*
X515814Y723702D01*
X515747Y723647D01*
X515679Y723594D01*
X515608Y723545D01*
X515535Y723500D01*
X515460Y723457D01*
X515384Y723418D01*
X515305Y723382D01*
X515225Y723350D01*
X515144Y723322D01*
X515062Y723297D01*
X514978Y723276D01*
X514894Y723259D01*
X514809Y723245D01*
X514723Y723236D01*
X514637Y723230D01*
X514551Y723228D01*
X550732Y722748D02*
X551692Y722748D01*
X550732Y722748D02*
X550732Y727546D01*
X559368Y725147D01*
X579970Y725627D02*
X579970Y722748D01*
X579970Y725627D02*
X579972Y725713D01*
X579978Y725799D01*
X579987Y725885D01*
X580001Y725970D01*
X580018Y726054D01*
X580039Y726138D01*
X580064Y726220D01*
X580092Y726301D01*
X580124Y726381D01*
X580160Y726460D01*
X580199Y726536D01*
X580242Y726611D01*
X580287Y726684D01*
X580337Y726755D01*
X580389Y726823D01*
X580444Y726890D01*
X580502Y726953D01*
X580563Y727014D01*
X580626Y727072D01*
X580693Y727127D01*
X580761Y727180D01*
X580832Y727229D01*
X580905Y727274D01*
X580980Y727317D01*
X581056Y727356D01*
X581135Y727392D01*
X581215Y727424D01*
X581296Y727452D01*
X581379Y727477D01*
X581462Y727498D01*
X581546Y727515D01*
X581631Y727529D01*
X581717Y727538D01*
X581803Y727544D01*
X581889Y727546D01*
X582369Y727546D01*
X582466Y727544D01*
X582562Y727538D01*
X582658Y727529D01*
X582754Y727515D01*
X582849Y727498D01*
X582943Y727476D01*
X583036Y727451D01*
X583129Y727423D01*
X583220Y727390D01*
X583309Y727354D01*
X583397Y727314D01*
X583484Y727271D01*
X583569Y727225D01*
X583651Y727175D01*
X583732Y727121D01*
X583810Y727065D01*
X583886Y727005D01*
X583960Y726943D01*
X584031Y726877D01*
X584099Y726809D01*
X584165Y726738D01*
X584227Y726664D01*
X584287Y726588D01*
X584343Y726510D01*
X584397Y726429D01*
X584447Y726347D01*
X584493Y726262D01*
X584536Y726175D01*
X584576Y726087D01*
X584612Y725998D01*
X584645Y725907D01*
X584673Y725814D01*
X584698Y725721D01*
X584720Y725627D01*
X584737Y725532D01*
X584751Y725436D01*
X584760Y725340D01*
X584766Y725244D01*
X584768Y725147D01*
X584766Y725050D01*
X584760Y724954D01*
X584751Y724858D01*
X584737Y724762D01*
X584720Y724667D01*
X584698Y724573D01*
X584673Y724480D01*
X584645Y724387D01*
X584612Y724296D01*
X584576Y724207D01*
X584536Y724119D01*
X584493Y724032D01*
X584447Y723948D01*
X584397Y723865D01*
X584343Y723784D01*
X584287Y723706D01*
X584227Y723630D01*
X584165Y723556D01*
X584099Y723485D01*
X584031Y723417D01*
X583960Y723351D01*
X583886Y723289D01*
X583810Y723229D01*
X583732Y723173D01*
X583651Y723119D01*
X583569Y723069D01*
X583484Y723023D01*
X583397Y722980D01*
X583309Y722940D01*
X583220Y722904D01*
X583129Y722871D01*
X583036Y722843D01*
X582943Y722818D01*
X582849Y722796D01*
X582754Y722779D01*
X582658Y722765D01*
X582562Y722756D01*
X582466Y722750D01*
X582369Y722748D01*
X579970Y722748D01*
X579970Y722749D02*
X579847Y722751D01*
X579724Y722757D01*
X579601Y722767D01*
X579479Y722781D01*
X579357Y722798D01*
X579236Y722820D01*
X579116Y722845D01*
X578996Y722875D01*
X578878Y722908D01*
X578761Y722945D01*
X578644Y722985D01*
X578530Y723029D01*
X578416Y723077D01*
X578305Y723129D01*
X578195Y723184D01*
X578087Y723243D01*
X577980Y723305D01*
X577876Y723370D01*
X577774Y723439D01*
X577674Y723511D01*
X577577Y723586D01*
X577482Y723665D01*
X577390Y723746D01*
X577300Y723830D01*
X577213Y723917D01*
X577129Y724007D01*
X577048Y724099D01*
X576969Y724194D01*
X576894Y724291D01*
X576822Y724391D01*
X576753Y724493D01*
X576688Y724597D01*
X576626Y724704D01*
X576567Y724812D01*
X576512Y724922D01*
X576460Y725033D01*
X576413Y725147D01*
X576368Y725261D01*
X576328Y725378D01*
X576291Y725495D01*
X576258Y725613D01*
X576228Y725733D01*
X576203Y725853D01*
X576181Y725974D01*
X576164Y726096D01*
X576150Y726218D01*
X576140Y726341D01*
X576134Y726464D01*
X576132Y726587D01*
X610168Y725627D02*
X610168Y722748D01*
X610168Y725627D02*
X610166Y725713D01*
X610160Y725799D01*
X610151Y725885D01*
X610137Y725970D01*
X610120Y726054D01*
X610099Y726138D01*
X610074Y726220D01*
X610046Y726301D01*
X610014Y726381D01*
X609978Y726460D01*
X609939Y726536D01*
X609896Y726611D01*
X609851Y726684D01*
X609802Y726755D01*
X609749Y726823D01*
X609694Y726890D01*
X609636Y726953D01*
X609575Y727014D01*
X609512Y727072D01*
X609445Y727127D01*
X609377Y727180D01*
X609306Y727229D01*
X609233Y727274D01*
X609158Y727317D01*
X609082Y727356D01*
X609003Y727392D01*
X608923Y727424D01*
X608842Y727452D01*
X608760Y727477D01*
X608676Y727498D01*
X608592Y727515D01*
X608507Y727529D01*
X608421Y727538D01*
X608335Y727544D01*
X608249Y727546D01*
X607289Y727546D01*
X607203Y727544D01*
X607117Y727538D01*
X607031Y727529D01*
X606946Y727515D01*
X606862Y727498D01*
X606778Y727477D01*
X606696Y727452D01*
X606615Y727424D01*
X606535Y727392D01*
X606456Y727356D01*
X606380Y727317D01*
X606305Y727274D01*
X606232Y727229D01*
X606161Y727180D01*
X606093Y727127D01*
X606026Y727072D01*
X605963Y727014D01*
X605902Y726953D01*
X605844Y726890D01*
X605789Y726823D01*
X605737Y726755D01*
X605687Y726684D01*
X605642Y726611D01*
X605599Y726536D01*
X605560Y726460D01*
X605524Y726381D01*
X605492Y726301D01*
X605464Y726220D01*
X605439Y726138D01*
X605418Y726054D01*
X605401Y725970D01*
X605387Y725885D01*
X605378Y725799D01*
X605372Y725713D01*
X605370Y725627D01*
X605370Y722748D01*
X601532Y722748D01*
X601532Y727546D01*
X626932Y724667D02*
X633649Y722748D01*
X633649Y727546D01*
X631730Y726107D02*
X635568Y726107D01*
X660968Y725147D02*
X660968Y722748D01*
X660968Y725147D02*
X660966Y725244D01*
X660960Y725340D01*
X660951Y725436D01*
X660937Y725532D01*
X660920Y725627D01*
X660898Y725721D01*
X660873Y725814D01*
X660845Y725907D01*
X660812Y725998D01*
X660776Y726087D01*
X660736Y726175D01*
X660693Y726262D01*
X660647Y726347D01*
X660597Y726429D01*
X660543Y726510D01*
X660487Y726588D01*
X660427Y726664D01*
X660365Y726738D01*
X660299Y726809D01*
X660231Y726877D01*
X660160Y726943D01*
X660086Y727005D01*
X660010Y727065D01*
X659932Y727121D01*
X659851Y727175D01*
X659769Y727225D01*
X659684Y727271D01*
X659597Y727314D01*
X659509Y727354D01*
X659420Y727390D01*
X659329Y727423D01*
X659236Y727451D01*
X659143Y727476D01*
X659049Y727498D01*
X658954Y727515D01*
X658858Y727529D01*
X658762Y727538D01*
X658666Y727544D01*
X658569Y727546D01*
X658472Y727544D01*
X658376Y727538D01*
X658280Y727529D01*
X658184Y727515D01*
X658089Y727498D01*
X657995Y727476D01*
X657902Y727451D01*
X657809Y727423D01*
X657718Y727390D01*
X657629Y727354D01*
X657541Y727314D01*
X657454Y727271D01*
X657370Y727225D01*
X657287Y727175D01*
X657206Y727121D01*
X657128Y727065D01*
X657052Y727005D01*
X656978Y726943D01*
X656907Y726877D01*
X656839Y726809D01*
X656773Y726738D01*
X656711Y726664D01*
X656651Y726588D01*
X656595Y726510D01*
X656541Y726429D01*
X656491Y726347D01*
X656445Y726262D01*
X656402Y726175D01*
X656362Y726087D01*
X656326Y725998D01*
X656293Y725907D01*
X656265Y725814D01*
X656240Y725721D01*
X656218Y725627D01*
X656201Y725532D01*
X656187Y725436D01*
X656178Y725340D01*
X656172Y725244D01*
X656170Y725147D01*
X652332Y725627D02*
X652332Y722748D01*
X652332Y725627D02*
X652334Y725713D01*
X652340Y725799D01*
X652349Y725885D01*
X652363Y725970D01*
X652380Y726054D01*
X652401Y726138D01*
X652426Y726220D01*
X652454Y726301D01*
X652486Y726381D01*
X652522Y726460D01*
X652561Y726536D01*
X652604Y726611D01*
X652649Y726684D01*
X652698Y726755D01*
X652751Y726823D01*
X652806Y726890D01*
X652864Y726953D01*
X652925Y727014D01*
X652988Y727072D01*
X653055Y727127D01*
X653123Y727180D01*
X653194Y727229D01*
X653267Y727274D01*
X653342Y727317D01*
X653418Y727356D01*
X653497Y727392D01*
X653577Y727424D01*
X653658Y727452D01*
X653740Y727477D01*
X653824Y727498D01*
X653908Y727515D01*
X653993Y727529D01*
X654079Y727538D01*
X654165Y727544D01*
X654251Y727546D01*
X654337Y727544D01*
X654423Y727538D01*
X654509Y727529D01*
X654594Y727515D01*
X654678Y727498D01*
X654762Y727477D01*
X654844Y727452D01*
X654925Y727424D01*
X655005Y727392D01*
X655084Y727356D01*
X655160Y727317D01*
X655235Y727274D01*
X655308Y727229D01*
X655379Y727180D01*
X655447Y727127D01*
X655514Y727072D01*
X655577Y727014D01*
X655638Y726953D01*
X655696Y726890D01*
X655751Y726823D01*
X655804Y726755D01*
X655853Y726684D01*
X655898Y726611D01*
X655941Y726536D01*
X655980Y726460D01*
X656016Y726381D01*
X656048Y726301D01*
X656076Y726220D01*
X656101Y726138D01*
X656122Y726054D01*
X656139Y725970D01*
X656153Y725885D01*
X656162Y725799D01*
X656168Y725713D01*
X656170Y725627D01*
X656170Y723708D01*
X677732Y725387D02*
X677734Y725479D01*
X677740Y725570D01*
X677749Y725661D01*
X677763Y725752D01*
X677780Y725842D01*
X677802Y725931D01*
X677827Y726019D01*
X677855Y726106D01*
X677888Y726192D01*
X677924Y726276D01*
X677963Y726359D01*
X678006Y726440D01*
X678053Y726519D01*
X678102Y726596D01*
X678155Y726671D01*
X678211Y726743D01*
X678270Y726813D01*
X678332Y726881D01*
X678397Y726946D01*
X678465Y727008D01*
X678535Y727067D01*
X678607Y727123D01*
X678682Y727176D01*
X678759Y727225D01*
X678838Y727272D01*
X678919Y727315D01*
X679002Y727354D01*
X679086Y727390D01*
X679172Y727423D01*
X679259Y727451D01*
X679347Y727476D01*
X679436Y727498D01*
X679526Y727515D01*
X679617Y727529D01*
X679708Y727538D01*
X679799Y727544D01*
X679891Y727546D01*
X677732Y725387D02*
X677734Y725284D01*
X677740Y725182D01*
X677749Y725080D01*
X677762Y724978D01*
X677779Y724877D01*
X677800Y724776D01*
X677824Y724677D01*
X677853Y724578D01*
X677884Y724481D01*
X677920Y724384D01*
X677958Y724289D01*
X678001Y724196D01*
X678047Y724104D01*
X678096Y724014D01*
X678148Y723926D01*
X678204Y723839D01*
X678263Y723755D01*
X678324Y723674D01*
X678389Y723594D01*
X678457Y723517D01*
X678528Y723442D01*
X678601Y723371D01*
X678677Y723302D01*
X678755Y723235D01*
X678836Y723172D01*
X678919Y723112D01*
X679004Y723055D01*
X679091Y723001D01*
X679181Y722950D01*
X679272Y722903D01*
X679364Y722859D01*
X679459Y722818D01*
X679554Y722781D01*
X679651Y722748D01*
X681570Y726826D02*
X681504Y726893D01*
X681435Y726957D01*
X681364Y727018D01*
X681290Y727076D01*
X681214Y727131D01*
X681136Y727183D01*
X681056Y727232D01*
X680974Y727278D01*
X680890Y727320D01*
X680804Y727359D01*
X680717Y727394D01*
X680629Y727425D01*
X680539Y727453D01*
X680449Y727478D01*
X680357Y727499D01*
X680265Y727516D01*
X680172Y727529D01*
X680079Y727538D01*
X679985Y727544D01*
X679891Y727546D01*
X681570Y726826D02*
X686368Y722748D01*
X686368Y727546D01*
X703132Y716133D02*
X711768Y716133D01*
X703132Y713734D02*
X703132Y718532D01*
X703132Y727546D02*
X711768Y721789D01*
X711768Y727546D02*
X703132Y721789D01*
X728532Y713209D02*
X737168Y713209D01*
X728532Y713209D02*
X728532Y715608D01*
X728534Y715705D01*
X728540Y715801D01*
X728549Y715897D01*
X728563Y715993D01*
X728580Y716088D01*
X728602Y716182D01*
X728627Y716275D01*
X728655Y716368D01*
X728688Y716459D01*
X728724Y716548D01*
X728764Y716636D01*
X728807Y716723D01*
X728853Y716808D01*
X728903Y716890D01*
X728957Y716971D01*
X729013Y717049D01*
X729073Y717125D01*
X729135Y717199D01*
X729201Y717270D01*
X729269Y717338D01*
X729340Y717404D01*
X729414Y717466D01*
X729490Y717526D01*
X729568Y717582D01*
X729649Y717636D01*
X729732Y717686D01*
X729816Y717732D01*
X729903Y717775D01*
X729991Y717815D01*
X730080Y717851D01*
X730171Y717884D01*
X730264Y717912D01*
X730357Y717937D01*
X730451Y717959D01*
X730546Y717976D01*
X730642Y717990D01*
X730738Y717999D01*
X730834Y718005D01*
X730931Y718007D01*
X731028Y718005D01*
X731124Y717999D01*
X731220Y717990D01*
X731316Y717976D01*
X731411Y717959D01*
X731505Y717937D01*
X731598Y717912D01*
X731691Y717884D01*
X731782Y717851D01*
X731871Y717815D01*
X731959Y717775D01*
X732046Y717732D01*
X732131Y717686D01*
X732213Y717636D01*
X732294Y717582D01*
X732372Y717526D01*
X732448Y717466D01*
X732522Y717404D01*
X732593Y717338D01*
X732661Y717270D01*
X732727Y717199D01*
X732789Y717125D01*
X732849Y717049D01*
X732905Y716971D01*
X732959Y716890D01*
X733009Y716808D01*
X733055Y716723D01*
X733098Y716636D01*
X733138Y716548D01*
X733174Y716459D01*
X733207Y716368D01*
X733235Y716275D01*
X733260Y716182D01*
X733282Y716088D01*
X733299Y715993D01*
X733313Y715897D01*
X733322Y715801D01*
X733328Y715705D01*
X733330Y715608D01*
X733330Y713209D01*
X733330Y716088D02*
X737168Y718007D01*
X737168Y721789D02*
X728532Y727546D01*
X728532Y721789D02*
X737168Y727546D01*
X318068Y706554D02*
X318066Y706640D01*
X318060Y706726D01*
X318051Y706812D01*
X318037Y706897D01*
X318020Y706981D01*
X317999Y707065D01*
X317974Y707147D01*
X317946Y707228D01*
X317914Y707308D01*
X317878Y707387D01*
X317839Y707463D01*
X317796Y707538D01*
X317751Y707611D01*
X317702Y707682D01*
X317649Y707750D01*
X317594Y707817D01*
X317536Y707880D01*
X317475Y707941D01*
X317412Y707999D01*
X317345Y708054D01*
X317277Y708107D01*
X317206Y708156D01*
X317133Y708201D01*
X317058Y708244D01*
X316982Y708283D01*
X316903Y708319D01*
X316823Y708351D01*
X316742Y708379D01*
X316660Y708404D01*
X316576Y708425D01*
X316492Y708442D01*
X316407Y708456D01*
X316321Y708465D01*
X316235Y708471D01*
X316149Y708473D01*
X318068Y706554D02*
X318066Y706431D01*
X318061Y706308D01*
X318051Y706185D01*
X318038Y706063D01*
X318021Y705941D01*
X318001Y705819D01*
X317977Y705699D01*
X317949Y705579D01*
X317918Y705460D01*
X317882Y705342D01*
X317844Y705225D01*
X317802Y705109D01*
X317756Y704995D01*
X317707Y704882D01*
X317655Y704771D01*
X317599Y704661D01*
X317540Y704553D01*
X317477Y704447D01*
X317412Y704343D01*
X317343Y704240D01*
X317271Y704140D01*
X317196Y704043D01*
X317119Y703947D01*
X317038Y703854D01*
X316955Y703763D01*
X316869Y703675D01*
X311351Y703916D02*
X311265Y703918D01*
X311179Y703924D01*
X311093Y703933D01*
X311008Y703947D01*
X310924Y703964D01*
X310840Y703985D01*
X310758Y704010D01*
X310677Y704038D01*
X310597Y704070D01*
X310518Y704106D01*
X310442Y704145D01*
X310367Y704188D01*
X310294Y704233D01*
X310223Y704282D01*
X310155Y704335D01*
X310088Y704390D01*
X310025Y704448D01*
X309964Y704509D01*
X309906Y704572D01*
X309851Y704639D01*
X309798Y704707D01*
X309749Y704778D01*
X309704Y704851D01*
X309661Y704926D01*
X309622Y705002D01*
X309586Y705081D01*
X309554Y705161D01*
X309526Y705242D01*
X309501Y705324D01*
X309480Y705408D01*
X309463Y705492D01*
X309449Y705577D01*
X309440Y705663D01*
X309434Y705749D01*
X309432Y705835D01*
X309434Y705951D01*
X309439Y706066D01*
X309449Y706182D01*
X309462Y706297D01*
X309478Y706411D01*
X309499Y706525D01*
X309523Y706639D01*
X309551Y706751D01*
X309582Y706862D01*
X309617Y706973D01*
X309655Y707082D01*
X309697Y707190D01*
X309742Y707296D01*
X309791Y707402D01*
X309843Y707505D01*
X309898Y707607D01*
X309957Y707706D01*
X310019Y707804D01*
X310084Y707900D01*
X310152Y707994D01*
X313030Y704876D02*
X312984Y704801D01*
X312934Y704728D01*
X312881Y704658D01*
X312825Y704590D01*
X312766Y704525D01*
X312704Y704462D01*
X312640Y704403D01*
X312572Y704346D01*
X312502Y704292D01*
X312430Y704242D01*
X312356Y704195D01*
X312280Y704151D01*
X312201Y704111D01*
X312121Y704075D01*
X312040Y704042D01*
X311957Y704013D01*
X311872Y703987D01*
X311787Y703965D01*
X311701Y703948D01*
X311614Y703934D01*
X311527Y703924D01*
X311439Y703918D01*
X311351Y703916D01*
X314470Y707514D02*
X314516Y707588D01*
X314566Y707661D01*
X314619Y707731D01*
X314675Y707799D01*
X314734Y707864D01*
X314796Y707927D01*
X314861Y707986D01*
X314928Y708043D01*
X314998Y708097D01*
X315070Y708147D01*
X315144Y708194D01*
X315220Y708238D01*
X315299Y708278D01*
X315379Y708314D01*
X315460Y708347D01*
X315543Y708377D01*
X315628Y708402D01*
X315713Y708424D01*
X315799Y708441D01*
X315886Y708455D01*
X315973Y708465D01*
X316061Y708471D01*
X316149Y708473D01*
X314470Y707514D02*
X313030Y704875D01*
X309432Y712820D02*
X318068Y712820D01*
X309432Y712820D02*
X309432Y715219D01*
X309434Y715316D01*
X309440Y715412D01*
X309449Y715508D01*
X309463Y715604D01*
X309480Y715699D01*
X309502Y715793D01*
X309527Y715886D01*
X309555Y715979D01*
X309588Y716070D01*
X309624Y716159D01*
X309664Y716247D01*
X309707Y716334D01*
X309753Y716419D01*
X309803Y716501D01*
X309857Y716582D01*
X309913Y716660D01*
X309973Y716736D01*
X310035Y716810D01*
X310101Y716881D01*
X310169Y716949D01*
X310240Y717015D01*
X310314Y717077D01*
X310390Y717137D01*
X310468Y717193D01*
X310549Y717247D01*
X310632Y717297D01*
X310716Y717343D01*
X310803Y717386D01*
X310891Y717426D01*
X310980Y717462D01*
X311071Y717495D01*
X311164Y717523D01*
X311257Y717548D01*
X311351Y717570D01*
X311446Y717587D01*
X311542Y717601D01*
X311638Y717610D01*
X311734Y717616D01*
X311831Y717618D01*
X311831Y717617D02*
X315669Y717617D01*
X315669Y717618D02*
X315766Y717616D01*
X315862Y717610D01*
X315958Y717601D01*
X316054Y717587D01*
X316149Y717570D01*
X316243Y717548D01*
X316336Y717523D01*
X316429Y717495D01*
X316520Y717462D01*
X316609Y717426D01*
X316697Y717386D01*
X316784Y717343D01*
X316869Y717297D01*
X316951Y717247D01*
X317032Y717193D01*
X317110Y717137D01*
X317186Y717077D01*
X317260Y717015D01*
X317331Y716949D01*
X317399Y716881D01*
X317465Y716810D01*
X317527Y716736D01*
X317587Y716660D01*
X317643Y716582D01*
X317697Y716501D01*
X317747Y716419D01*
X317793Y716334D01*
X317836Y716247D01*
X317876Y716159D01*
X317912Y716070D01*
X317945Y715979D01*
X317973Y715886D01*
X317998Y715793D01*
X318020Y715699D01*
X318037Y715604D01*
X318051Y715508D01*
X318060Y715412D01*
X318066Y715316D01*
X318068Y715219D01*
X318068Y712820D01*
X318068Y721789D02*
X309432Y724667D01*
X318068Y727546D01*
X315909Y726826D02*
X315909Y722508D01*
X292668Y709797D02*
X292666Y709883D01*
X292660Y709969D01*
X292651Y710055D01*
X292637Y710140D01*
X292620Y710224D01*
X292599Y710308D01*
X292574Y710390D01*
X292546Y710471D01*
X292514Y710551D01*
X292478Y710630D01*
X292439Y710706D01*
X292396Y710781D01*
X292351Y710854D01*
X292302Y710925D01*
X292249Y710993D01*
X292194Y711060D01*
X292136Y711123D01*
X292075Y711184D01*
X292012Y711242D01*
X291945Y711297D01*
X291877Y711350D01*
X291806Y711399D01*
X291733Y711444D01*
X291658Y711487D01*
X291582Y711526D01*
X291503Y711562D01*
X291423Y711594D01*
X291342Y711622D01*
X291260Y711647D01*
X291176Y711668D01*
X291092Y711685D01*
X291007Y711699D01*
X290921Y711708D01*
X290835Y711714D01*
X290749Y711716D01*
X292668Y709797D02*
X292666Y709674D01*
X292661Y709551D01*
X292651Y709428D01*
X292638Y709306D01*
X292621Y709184D01*
X292601Y709062D01*
X292577Y708942D01*
X292549Y708822D01*
X292518Y708703D01*
X292482Y708585D01*
X292444Y708468D01*
X292402Y708352D01*
X292356Y708238D01*
X292307Y708125D01*
X292255Y708014D01*
X292199Y707904D01*
X292140Y707796D01*
X292077Y707690D01*
X292012Y707586D01*
X291943Y707483D01*
X291871Y707383D01*
X291796Y707286D01*
X291719Y707190D01*
X291638Y707097D01*
X291555Y707006D01*
X291469Y706918D01*
X285951Y707158D02*
X285865Y707160D01*
X285779Y707166D01*
X285693Y707175D01*
X285608Y707189D01*
X285524Y707206D01*
X285440Y707227D01*
X285358Y707252D01*
X285277Y707280D01*
X285197Y707312D01*
X285118Y707348D01*
X285042Y707387D01*
X284967Y707430D01*
X284894Y707475D01*
X284823Y707524D01*
X284755Y707577D01*
X284688Y707632D01*
X284625Y707690D01*
X284564Y707751D01*
X284506Y707814D01*
X284451Y707881D01*
X284398Y707949D01*
X284349Y708020D01*
X284304Y708093D01*
X284261Y708168D01*
X284222Y708244D01*
X284186Y708323D01*
X284154Y708403D01*
X284126Y708484D01*
X284101Y708566D01*
X284080Y708650D01*
X284063Y708734D01*
X284049Y708819D01*
X284040Y708905D01*
X284034Y708991D01*
X284032Y709077D01*
X284034Y709193D01*
X284039Y709308D01*
X284049Y709424D01*
X284062Y709539D01*
X284078Y709653D01*
X284099Y709767D01*
X284123Y709881D01*
X284151Y709993D01*
X284182Y710104D01*
X284217Y710215D01*
X284255Y710324D01*
X284297Y710432D01*
X284342Y710538D01*
X284391Y710644D01*
X284443Y710747D01*
X284498Y710849D01*
X284557Y710948D01*
X284619Y711046D01*
X284684Y711142D01*
X284752Y711236D01*
X287630Y708118D02*
X287584Y708043D01*
X287534Y707970D01*
X287481Y707900D01*
X287425Y707832D01*
X287366Y707767D01*
X287304Y707704D01*
X287240Y707645D01*
X287172Y707588D01*
X287102Y707534D01*
X287030Y707484D01*
X286956Y707437D01*
X286880Y707393D01*
X286801Y707353D01*
X286721Y707317D01*
X286640Y707284D01*
X286557Y707255D01*
X286472Y707229D01*
X286387Y707207D01*
X286301Y707190D01*
X286214Y707176D01*
X286127Y707166D01*
X286039Y707160D01*
X285951Y707158D01*
X289070Y710757D02*
X289116Y710831D01*
X289166Y710904D01*
X289219Y710974D01*
X289275Y711042D01*
X289334Y711107D01*
X289396Y711170D01*
X289461Y711229D01*
X289528Y711286D01*
X289598Y711340D01*
X289670Y711390D01*
X289744Y711437D01*
X289820Y711481D01*
X289899Y711521D01*
X289979Y711557D01*
X290060Y711590D01*
X290143Y711620D01*
X290228Y711645D01*
X290313Y711667D01*
X290399Y711684D01*
X290486Y711698D01*
X290573Y711708D01*
X290661Y711714D01*
X290749Y711716D01*
X289070Y710756D02*
X287630Y708117D01*
X292668Y717638D02*
X292668Y719557D01*
X292668Y717638D02*
X292666Y717552D01*
X292660Y717466D01*
X292651Y717380D01*
X292637Y717295D01*
X292620Y717211D01*
X292599Y717127D01*
X292574Y717045D01*
X292546Y716964D01*
X292514Y716884D01*
X292478Y716805D01*
X292439Y716729D01*
X292396Y716654D01*
X292351Y716581D01*
X292302Y716510D01*
X292249Y716442D01*
X292194Y716375D01*
X292136Y716312D01*
X292075Y716251D01*
X292012Y716193D01*
X291945Y716138D01*
X291877Y716086D01*
X291806Y716036D01*
X291733Y715991D01*
X291658Y715948D01*
X291582Y715909D01*
X291503Y715873D01*
X291423Y715841D01*
X291342Y715813D01*
X291260Y715788D01*
X291176Y715767D01*
X291092Y715750D01*
X291007Y715736D01*
X290921Y715727D01*
X290835Y715721D01*
X290749Y715719D01*
X285951Y715719D01*
X285865Y715721D01*
X285779Y715727D01*
X285693Y715736D01*
X285608Y715750D01*
X285524Y715767D01*
X285440Y715788D01*
X285358Y715813D01*
X285277Y715841D01*
X285197Y715873D01*
X285118Y715909D01*
X285042Y715948D01*
X284967Y715991D01*
X284894Y716036D01*
X284823Y716085D01*
X284755Y716138D01*
X284688Y716193D01*
X284625Y716251D01*
X284564Y716312D01*
X284506Y716375D01*
X284451Y716442D01*
X284399Y716510D01*
X284349Y716581D01*
X284304Y716654D01*
X284261Y716729D01*
X284222Y716805D01*
X284186Y716884D01*
X284154Y716964D01*
X284126Y717045D01*
X284101Y717127D01*
X284080Y717211D01*
X284063Y717295D01*
X284049Y717380D01*
X284040Y717466D01*
X284034Y717552D01*
X284032Y717638D01*
X284032Y719557D01*
X284032Y723708D02*
X292668Y723708D01*
X292668Y727546D01*
X398332Y273973D02*
X406968Y273973D01*
X406968Y274932D02*
X406968Y273013D01*
X398332Y273013D02*
X398332Y274932D01*
X400731Y278889D02*
X404569Y278889D01*
X400731Y278889D02*
X400634Y278891D01*
X400538Y278897D01*
X400442Y278906D01*
X400346Y278920D01*
X400251Y278937D01*
X400157Y278959D01*
X400064Y278984D01*
X399971Y279012D01*
X399880Y279045D01*
X399791Y279081D01*
X399703Y279121D01*
X399616Y279164D01*
X399532Y279210D01*
X399449Y279260D01*
X399368Y279314D01*
X399290Y279370D01*
X399214Y279430D01*
X399140Y279492D01*
X399069Y279558D01*
X399001Y279626D01*
X398935Y279697D01*
X398873Y279771D01*
X398813Y279847D01*
X398757Y279925D01*
X398703Y280006D01*
X398653Y280089D01*
X398607Y280173D01*
X398564Y280260D01*
X398524Y280348D01*
X398488Y280437D01*
X398455Y280528D01*
X398427Y280621D01*
X398402Y280714D01*
X398380Y280808D01*
X398363Y280903D01*
X398349Y280999D01*
X398340Y281095D01*
X398334Y281191D01*
X398332Y281288D01*
X398334Y281385D01*
X398340Y281481D01*
X398349Y281577D01*
X398363Y281673D01*
X398380Y281768D01*
X398402Y281862D01*
X398427Y281955D01*
X398455Y282048D01*
X398488Y282139D01*
X398524Y282228D01*
X398564Y282316D01*
X398607Y282403D01*
X398653Y282488D01*
X398703Y282570D01*
X398757Y282651D01*
X398813Y282729D01*
X398873Y282805D01*
X398935Y282879D01*
X399001Y282950D01*
X399069Y283018D01*
X399140Y283084D01*
X399214Y283146D01*
X399290Y283206D01*
X399368Y283262D01*
X399449Y283316D01*
X399532Y283366D01*
X399616Y283412D01*
X399703Y283455D01*
X399791Y283495D01*
X399880Y283531D01*
X399971Y283564D01*
X400064Y283592D01*
X400157Y283617D01*
X400251Y283639D01*
X400346Y283656D01*
X400442Y283670D01*
X400538Y283679D01*
X400634Y283685D01*
X400731Y283687D01*
X404569Y283687D01*
X404666Y283685D01*
X404762Y283679D01*
X404858Y283670D01*
X404954Y283656D01*
X405049Y283639D01*
X405143Y283617D01*
X405236Y283592D01*
X405329Y283564D01*
X405420Y283531D01*
X405509Y283495D01*
X405597Y283455D01*
X405684Y283412D01*
X405769Y283366D01*
X405851Y283316D01*
X405932Y283262D01*
X406010Y283206D01*
X406086Y283146D01*
X406160Y283084D01*
X406231Y283018D01*
X406299Y282950D01*
X406365Y282879D01*
X406427Y282805D01*
X406487Y282729D01*
X406543Y282651D01*
X406597Y282570D01*
X406647Y282488D01*
X406693Y282403D01*
X406736Y282316D01*
X406776Y282228D01*
X406812Y282139D01*
X406845Y282048D01*
X406873Y281955D01*
X406898Y281862D01*
X406920Y281768D01*
X406937Y281673D01*
X406951Y281577D01*
X406960Y281481D01*
X406966Y281385D01*
X406968Y281288D01*
X406966Y281191D01*
X406960Y281095D01*
X406951Y280999D01*
X406937Y280903D01*
X406920Y280808D01*
X406898Y280714D01*
X406873Y280621D01*
X406845Y280528D01*
X406812Y280437D01*
X406776Y280348D01*
X406736Y280260D01*
X406693Y280173D01*
X406647Y280089D01*
X406597Y280006D01*
X406543Y279925D01*
X406487Y279847D01*
X406427Y279771D01*
X406365Y279697D01*
X406299Y279626D01*
X406231Y279558D01*
X406160Y279492D01*
X406086Y279430D01*
X406010Y279370D01*
X405932Y279314D01*
X405851Y279260D01*
X405769Y279210D01*
X405684Y279164D01*
X405597Y279121D01*
X405509Y279081D01*
X405420Y279045D01*
X405329Y279012D01*
X405236Y278984D01*
X405143Y278959D01*
X405049Y278937D01*
X404954Y278920D01*
X404858Y278906D01*
X404762Y278897D01*
X404666Y278891D01*
X404569Y278889D01*
X406968Y288422D02*
X398332Y288422D01*
X398332Y290821D01*
X398334Y290918D01*
X398340Y291014D01*
X398349Y291110D01*
X398363Y291206D01*
X398380Y291301D01*
X398402Y291395D01*
X398427Y291488D01*
X398455Y291581D01*
X398488Y291672D01*
X398524Y291761D01*
X398564Y291849D01*
X398607Y291936D01*
X398653Y292021D01*
X398703Y292103D01*
X398757Y292184D01*
X398813Y292262D01*
X398873Y292338D01*
X398935Y292412D01*
X399001Y292483D01*
X399069Y292551D01*
X399140Y292617D01*
X399214Y292679D01*
X399290Y292739D01*
X399368Y292795D01*
X399449Y292849D01*
X399532Y292899D01*
X399616Y292945D01*
X399703Y292988D01*
X399791Y293028D01*
X399880Y293064D01*
X399971Y293097D01*
X400064Y293125D01*
X400157Y293150D01*
X400251Y293172D01*
X400346Y293189D01*
X400442Y293203D01*
X400538Y293212D01*
X400634Y293218D01*
X400731Y293220D01*
X400828Y293218D01*
X400924Y293212D01*
X401020Y293203D01*
X401116Y293189D01*
X401211Y293172D01*
X401305Y293150D01*
X401398Y293125D01*
X401491Y293097D01*
X401582Y293064D01*
X401671Y293028D01*
X401759Y292988D01*
X401846Y292945D01*
X401931Y292899D01*
X402013Y292849D01*
X402094Y292795D01*
X402172Y292739D01*
X402248Y292679D01*
X402322Y292617D01*
X402393Y292551D01*
X402461Y292483D01*
X402527Y292412D01*
X402589Y292338D01*
X402649Y292262D01*
X402705Y292184D01*
X402759Y292103D01*
X402809Y292021D01*
X402855Y291936D01*
X402898Y291849D01*
X402938Y291761D01*
X402974Y291672D01*
X403007Y291581D01*
X403035Y291488D01*
X403060Y291395D01*
X403082Y291301D01*
X403099Y291206D01*
X403113Y291110D01*
X403122Y291014D01*
X403128Y290918D01*
X403130Y290821D01*
X403130Y288422D01*
X403130Y291301D02*
X406968Y293220D01*
X406968Y297812D02*
X406968Y301651D01*
X406968Y297812D02*
X398332Y297812D01*
X398332Y301651D01*
X402170Y300691D02*
X402170Y297812D01*
X398332Y305737D02*
X406968Y305737D01*
X398332Y305737D02*
X398332Y309575D01*
X402170Y309575D02*
X402170Y305737D01*
X1563053Y372618D02*
X1569403Y378968D01*
X1582103Y378968D01*
X1588453Y372618D01*
X1588453Y359918D01*
X1582103Y353568D01*
X1569403Y353568D01*
X1563053Y359918D01*
X1531303Y378968D02*
X1518603Y378968D01*
X1531303Y378968D02*
X1537653Y372618D01*
X1537653Y359918D01*
X1531303Y353568D01*
X1537653Y372618D02*
X1544003Y378968D01*
X1556703Y378968D01*
X1563053Y372618D01*
X1563053Y359918D01*
X1556703Y353568D01*
X1544003Y353568D01*
X1537653Y359918D01*
X1493203Y378968D02*
X1486853Y372618D01*
X1493203Y378968D02*
X1505903Y378968D01*
X1512253Y372618D01*
X1512253Y359918D01*
X1505903Y353568D01*
X1493203Y353568D01*
X1486853Y359918D01*
X1512253Y372618D02*
X1518603Y378968D01*
X1512253Y359918D02*
X1518603Y353568D01*
X1531303Y353568D01*
X1455103Y378968D02*
X1442403Y378968D01*
X1455103Y378968D02*
X1461453Y372618D01*
X1461453Y359918D01*
X1455103Y353568D01*
X1461453Y372618D02*
X1467803Y378968D01*
X1480503Y378968D01*
X1486853Y372618D01*
X1486853Y359918D01*
X1480503Y353568D01*
X1467803Y353568D01*
X1461453Y359918D01*
X1417003Y378968D02*
X1410653Y372618D01*
X1417003Y378968D02*
X1429703Y378968D01*
X1436053Y372618D01*
X1436053Y359918D01*
X1429703Y353568D01*
X1417003Y353568D01*
X1410653Y359918D01*
X1436053Y372618D02*
X1442403Y378968D01*
X1436053Y359918D02*
X1442403Y353568D01*
X1455103Y353568D01*
X1378903Y378968D02*
X1366203Y378968D01*
X1378903Y378968D02*
X1385253Y372618D01*
X1385253Y359918D01*
X1378903Y353568D01*
X1385253Y372618D02*
X1391603Y378968D01*
X1404303Y378968D01*
X1410653Y372618D01*
X1410653Y359918D01*
X1404303Y353568D01*
X1391603Y353568D01*
X1385253Y359918D01*
X1340803Y378968D02*
X1334453Y372618D01*
X1340803Y378968D02*
X1353503Y378968D01*
X1359853Y372618D01*
X1359853Y359918D01*
X1353503Y353568D01*
X1340803Y353568D01*
X1334453Y359918D01*
X1359853Y372618D02*
X1366203Y378968D01*
X1359853Y359918D02*
X1366203Y353568D01*
X1378903Y353568D01*
X1302703Y378968D02*
X1290003Y378968D01*
X1302703Y378968D02*
X1309053Y372618D01*
X1309053Y359918D01*
X1302703Y353568D01*
X1309053Y372618D02*
X1315403Y378968D01*
X1328103Y378968D01*
X1334453Y372618D01*
X1334453Y359918D01*
X1328103Y353568D01*
X1315403Y353568D01*
X1309053Y359918D01*
X1264603Y378968D02*
X1258253Y372618D01*
X1264603Y378968D02*
X1277303Y378968D01*
X1283653Y372618D01*
X1283653Y359918D01*
X1277303Y353568D01*
X1264603Y353568D01*
X1258253Y359918D01*
X1283653Y372618D02*
X1290003Y378968D01*
X1283653Y359918D02*
X1290003Y353568D01*
X1302703Y353568D01*
X1226503Y378968D02*
X1213803Y378968D01*
X1226503Y378968D02*
X1232853Y372618D01*
X1232853Y359918D01*
X1226503Y353568D01*
X1232853Y372618D02*
X1239203Y378968D01*
X1251903Y378968D01*
X1258253Y372618D01*
X1258253Y359918D01*
X1251903Y353568D01*
X1239203Y353568D01*
X1232853Y359918D01*
X1207453Y359918D02*
X1207453Y372618D01*
X1213803Y378968D01*
X1207453Y359918D02*
X1213803Y353568D01*
X1226503Y353568D01*
X1588453Y372618D02*
X1594803Y378968D01*
X1607503Y378968D01*
X1613853Y372618D01*
X1613853Y359918D01*
X1607503Y353568D01*
X1594803Y353568D01*
X1588453Y359918D01*
D12*
X1935163Y391668D02*
X1135063Y391668D01*
X1935163Y391668D02*
X1935163Y31750D01*
X1135063Y31750D01*
X1135063Y391668D01*
X1180021Y331470D02*
X1890205Y331470D01*
X1890205Y91948D01*
X1180021Y91948D01*
X1180021Y331470D01*
X1144969Y369062D02*
X1144973Y369374D01*
X1144984Y369685D01*
X1145003Y369996D01*
X1145030Y370307D01*
X1145065Y370617D01*
X1145106Y370925D01*
X1145156Y371233D01*
X1145213Y371540D01*
X1145278Y371845D01*
X1145350Y372148D01*
X1145429Y372449D01*
X1145516Y372749D01*
X1145610Y373046D01*
X1145711Y373341D01*
X1145820Y373633D01*
X1145936Y373922D01*
X1146059Y374209D01*
X1146188Y374492D01*
X1146325Y374772D01*
X1146469Y375049D01*
X1146619Y375322D01*
X1146776Y375591D01*
X1146939Y375856D01*
X1147109Y376118D01*
X1147286Y376375D01*
X1147468Y376627D01*
X1147657Y376875D01*
X1147852Y377119D01*
X1148052Y377357D01*
X1148259Y377591D01*
X1148471Y377819D01*
X1148689Y378042D01*
X1148912Y378260D01*
X1149140Y378472D01*
X1149374Y378679D01*
X1149612Y378879D01*
X1149856Y379074D01*
X1150104Y379263D01*
X1150356Y379445D01*
X1150613Y379622D01*
X1150875Y379792D01*
X1151140Y379955D01*
X1151409Y380112D01*
X1151682Y380262D01*
X1151959Y380406D01*
X1152239Y380543D01*
X1152522Y380672D01*
X1152809Y380795D01*
X1153098Y380911D01*
X1153390Y381020D01*
X1153685Y381121D01*
X1153982Y381215D01*
X1154282Y381302D01*
X1154583Y381381D01*
X1154886Y381453D01*
X1155191Y381518D01*
X1155498Y381575D01*
X1155806Y381625D01*
X1156114Y381666D01*
X1156424Y381701D01*
X1156735Y381728D01*
X1157046Y381747D01*
X1157357Y381758D01*
X1157669Y381762D01*
X1157981Y381758D01*
X1158292Y381747D01*
X1158603Y381728D01*
X1158914Y381701D01*
X1159224Y381666D01*
X1159532Y381625D01*
X1159840Y381575D01*
X1160147Y381518D01*
X1160452Y381453D01*
X1160755Y381381D01*
X1161056Y381302D01*
X1161356Y381215D01*
X1161653Y381121D01*
X1161948Y381020D01*
X1162240Y380911D01*
X1162529Y380795D01*
X1162816Y380672D01*
X1163099Y380543D01*
X1163379Y380406D01*
X1163656Y380262D01*
X1163929Y380112D01*
X1164198Y379955D01*
X1164463Y379792D01*
X1164725Y379622D01*
X1164982Y379445D01*
X1165234Y379263D01*
X1165482Y379074D01*
X1165726Y378879D01*
X1165964Y378679D01*
X1166198Y378472D01*
X1166426Y378260D01*
X1166649Y378042D01*
X1166867Y377819D01*
X1167079Y377591D01*
X1167286Y377357D01*
X1167486Y377119D01*
X1167681Y376875D01*
X1167870Y376627D01*
X1168052Y376375D01*
X1168229Y376118D01*
X1168399Y375856D01*
X1168562Y375591D01*
X1168719Y375322D01*
X1168869Y375049D01*
X1169013Y374772D01*
X1169150Y374492D01*
X1169279Y374209D01*
X1169402Y373922D01*
X1169518Y373633D01*
X1169627Y373341D01*
X1169728Y373046D01*
X1169822Y372749D01*
X1169909Y372449D01*
X1169988Y372148D01*
X1170060Y371845D01*
X1170125Y371540D01*
X1170182Y371233D01*
X1170232Y370925D01*
X1170273Y370617D01*
X1170308Y370307D01*
X1170335Y369996D01*
X1170354Y369685D01*
X1170365Y369374D01*
X1170369Y369062D01*
X1170365Y368750D01*
X1170354Y368439D01*
X1170335Y368128D01*
X1170308Y367817D01*
X1170273Y367507D01*
X1170232Y367199D01*
X1170182Y366891D01*
X1170125Y366584D01*
X1170060Y366279D01*
X1169988Y365976D01*
X1169909Y365675D01*
X1169822Y365375D01*
X1169728Y365078D01*
X1169627Y364783D01*
X1169518Y364491D01*
X1169402Y364202D01*
X1169279Y363915D01*
X1169150Y363632D01*
X1169013Y363352D01*
X1168869Y363075D01*
X1168719Y362802D01*
X1168562Y362533D01*
X1168399Y362268D01*
X1168229Y362006D01*
X1168052Y361749D01*
X1167870Y361497D01*
X1167681Y361249D01*
X1167486Y361005D01*
X1167286Y360767D01*
X1167079Y360533D01*
X1166867Y360305D01*
X1166649Y360082D01*
X1166426Y359864D01*
X1166198Y359652D01*
X1165964Y359445D01*
X1165726Y359245D01*
X1165482Y359050D01*
X1165234Y358861D01*
X1164982Y358679D01*
X1164725Y358502D01*
X1164463Y358332D01*
X1164198Y358169D01*
X1163929Y358012D01*
X1163656Y357862D01*
X1163379Y357718D01*
X1163099Y357581D01*
X1162816Y357452D01*
X1162529Y357329D01*
X1162240Y357213D01*
X1161948Y357104D01*
X1161653Y357003D01*
X1161356Y356909D01*
X1161056Y356822D01*
X1160755Y356743D01*
X1160452Y356671D01*
X1160147Y356606D01*
X1159840Y356549D01*
X1159532Y356499D01*
X1159224Y356458D01*
X1158914Y356423D01*
X1158603Y356396D01*
X1158292Y356377D01*
X1157981Y356366D01*
X1157669Y356362D01*
X1157357Y356366D01*
X1157046Y356377D01*
X1156735Y356396D01*
X1156424Y356423D01*
X1156114Y356458D01*
X1155806Y356499D01*
X1155498Y356549D01*
X1155191Y356606D01*
X1154886Y356671D01*
X1154583Y356743D01*
X1154282Y356822D01*
X1153982Y356909D01*
X1153685Y357003D01*
X1153390Y357104D01*
X1153098Y357213D01*
X1152809Y357329D01*
X1152522Y357452D01*
X1152239Y357581D01*
X1151959Y357718D01*
X1151682Y357862D01*
X1151409Y358012D01*
X1151140Y358169D01*
X1150875Y358332D01*
X1150613Y358502D01*
X1150356Y358679D01*
X1150104Y358861D01*
X1149856Y359050D01*
X1149612Y359245D01*
X1149374Y359445D01*
X1149140Y359652D01*
X1148912Y359864D01*
X1148689Y360082D01*
X1148471Y360305D01*
X1148259Y360533D01*
X1148052Y360767D01*
X1147852Y361005D01*
X1147657Y361249D01*
X1147468Y361497D01*
X1147286Y361749D01*
X1147109Y362006D01*
X1146939Y362268D01*
X1146776Y362533D01*
X1146619Y362802D01*
X1146469Y363075D01*
X1146325Y363352D01*
X1146188Y363632D01*
X1146059Y363915D01*
X1145936Y364202D01*
X1145820Y364491D01*
X1145711Y364783D01*
X1145610Y365078D01*
X1145516Y365375D01*
X1145429Y365675D01*
X1145350Y365976D01*
X1145278Y366279D01*
X1145213Y366584D01*
X1145156Y366891D01*
X1145106Y367199D01*
X1145065Y367507D01*
X1145030Y367817D01*
X1145003Y368128D01*
X1144984Y368439D01*
X1144973Y368750D01*
X1144969Y369062D01*
X1144969Y54356D02*
X1144973Y54668D01*
X1144984Y54979D01*
X1145003Y55290D01*
X1145030Y55601D01*
X1145065Y55911D01*
X1145106Y56219D01*
X1145156Y56527D01*
X1145213Y56834D01*
X1145278Y57139D01*
X1145350Y57442D01*
X1145429Y57743D01*
X1145516Y58043D01*
X1145610Y58340D01*
X1145711Y58635D01*
X1145820Y58927D01*
X1145936Y59216D01*
X1146059Y59503D01*
X1146188Y59786D01*
X1146325Y60066D01*
X1146469Y60343D01*
X1146619Y60616D01*
X1146776Y60885D01*
X1146939Y61150D01*
X1147109Y61412D01*
X1147286Y61669D01*
X1147468Y61921D01*
X1147657Y62169D01*
X1147852Y62413D01*
X1148052Y62651D01*
X1148259Y62885D01*
X1148471Y63113D01*
X1148689Y63336D01*
X1148912Y63554D01*
X1149140Y63766D01*
X1149374Y63973D01*
X1149612Y64173D01*
X1149856Y64368D01*
X1150104Y64557D01*
X1150356Y64739D01*
X1150613Y64916D01*
X1150875Y65086D01*
X1151140Y65249D01*
X1151409Y65406D01*
X1151682Y65556D01*
X1151959Y65700D01*
X1152239Y65837D01*
X1152522Y65966D01*
X1152809Y66089D01*
X1153098Y66205D01*
X1153390Y66314D01*
X1153685Y66415D01*
X1153982Y66509D01*
X1154282Y66596D01*
X1154583Y66675D01*
X1154886Y66747D01*
X1155191Y66812D01*
X1155498Y66869D01*
X1155806Y66919D01*
X1156114Y66960D01*
X1156424Y66995D01*
X1156735Y67022D01*
X1157046Y67041D01*
X1157357Y67052D01*
X1157669Y67056D01*
X1157981Y67052D01*
X1158292Y67041D01*
X1158603Y67022D01*
X1158914Y66995D01*
X1159224Y66960D01*
X1159532Y66919D01*
X1159840Y66869D01*
X1160147Y66812D01*
X1160452Y66747D01*
X1160755Y66675D01*
X1161056Y66596D01*
X1161356Y66509D01*
X1161653Y66415D01*
X1161948Y66314D01*
X1162240Y66205D01*
X1162529Y66089D01*
X1162816Y65966D01*
X1163099Y65837D01*
X1163379Y65700D01*
X1163656Y65556D01*
X1163929Y65406D01*
X1164198Y65249D01*
X1164463Y65086D01*
X1164725Y64916D01*
X1164982Y64739D01*
X1165234Y64557D01*
X1165482Y64368D01*
X1165726Y64173D01*
X1165964Y63973D01*
X1166198Y63766D01*
X1166426Y63554D01*
X1166649Y63336D01*
X1166867Y63113D01*
X1167079Y62885D01*
X1167286Y62651D01*
X1167486Y62413D01*
X1167681Y62169D01*
X1167870Y61921D01*
X1168052Y61669D01*
X1168229Y61412D01*
X1168399Y61150D01*
X1168562Y60885D01*
X1168719Y60616D01*
X1168869Y60343D01*
X1169013Y60066D01*
X1169150Y59786D01*
X1169279Y59503D01*
X1169402Y59216D01*
X1169518Y58927D01*
X1169627Y58635D01*
X1169728Y58340D01*
X1169822Y58043D01*
X1169909Y57743D01*
X1169988Y57442D01*
X1170060Y57139D01*
X1170125Y56834D01*
X1170182Y56527D01*
X1170232Y56219D01*
X1170273Y55911D01*
X1170308Y55601D01*
X1170335Y55290D01*
X1170354Y54979D01*
X1170365Y54668D01*
X1170369Y54356D01*
X1170365Y54044D01*
X1170354Y53733D01*
X1170335Y53422D01*
X1170308Y53111D01*
X1170273Y52801D01*
X1170232Y52493D01*
X1170182Y52185D01*
X1170125Y51878D01*
X1170060Y51573D01*
X1169988Y51270D01*
X1169909Y50969D01*
X1169822Y50669D01*
X1169728Y50372D01*
X1169627Y50077D01*
X1169518Y49785D01*
X1169402Y49496D01*
X1169279Y49209D01*
X1169150Y48926D01*
X1169013Y48646D01*
X1168869Y48369D01*
X1168719Y48096D01*
X1168562Y47827D01*
X1168399Y47562D01*
X1168229Y47300D01*
X1168052Y47043D01*
X1167870Y46791D01*
X1167681Y46543D01*
X1167486Y46299D01*
X1167286Y46061D01*
X1167079Y45827D01*
X1166867Y45599D01*
X1166649Y45376D01*
X1166426Y45158D01*
X1166198Y44946D01*
X1165964Y44739D01*
X1165726Y44539D01*
X1165482Y44344D01*
X1165234Y44155D01*
X1164982Y43973D01*
X1164725Y43796D01*
X1164463Y43626D01*
X1164198Y43463D01*
X1163929Y43306D01*
X1163656Y43156D01*
X1163379Y43012D01*
X1163099Y42875D01*
X1162816Y42746D01*
X1162529Y42623D01*
X1162240Y42507D01*
X1161948Y42398D01*
X1161653Y42297D01*
X1161356Y42203D01*
X1161056Y42116D01*
X1160755Y42037D01*
X1160452Y41965D01*
X1160147Y41900D01*
X1159840Y41843D01*
X1159532Y41793D01*
X1159224Y41752D01*
X1158914Y41717D01*
X1158603Y41690D01*
X1158292Y41671D01*
X1157981Y41660D01*
X1157669Y41656D01*
X1157357Y41660D01*
X1157046Y41671D01*
X1156735Y41690D01*
X1156424Y41717D01*
X1156114Y41752D01*
X1155806Y41793D01*
X1155498Y41843D01*
X1155191Y41900D01*
X1154886Y41965D01*
X1154583Y42037D01*
X1154282Y42116D01*
X1153982Y42203D01*
X1153685Y42297D01*
X1153390Y42398D01*
X1153098Y42507D01*
X1152809Y42623D01*
X1152522Y42746D01*
X1152239Y42875D01*
X1151959Y43012D01*
X1151682Y43156D01*
X1151409Y43306D01*
X1151140Y43463D01*
X1150875Y43626D01*
X1150613Y43796D01*
X1150356Y43973D01*
X1150104Y44155D01*
X1149856Y44344D01*
X1149612Y44539D01*
X1149374Y44739D01*
X1149140Y44946D01*
X1148912Y45158D01*
X1148689Y45376D01*
X1148471Y45599D01*
X1148259Y45827D01*
X1148052Y46061D01*
X1147852Y46299D01*
X1147657Y46543D01*
X1147468Y46791D01*
X1147286Y47043D01*
X1147109Y47300D01*
X1146939Y47562D01*
X1146776Y47827D01*
X1146619Y48096D01*
X1146469Y48369D01*
X1146325Y48646D01*
X1146188Y48926D01*
X1146059Y49209D01*
X1145936Y49496D01*
X1145820Y49785D01*
X1145711Y50077D01*
X1145610Y50372D01*
X1145516Y50669D01*
X1145429Y50969D01*
X1145350Y51270D01*
X1145278Y51573D01*
X1145213Y51878D01*
X1145156Y52185D01*
X1145106Y52493D01*
X1145065Y52801D01*
X1145030Y53111D01*
X1145003Y53422D01*
X1144984Y53733D01*
X1144973Y54044D01*
X1144969Y54356D01*
X1899857Y369062D02*
X1899861Y369374D01*
X1899872Y369685D01*
X1899891Y369996D01*
X1899918Y370307D01*
X1899953Y370617D01*
X1899994Y370925D01*
X1900044Y371233D01*
X1900101Y371540D01*
X1900166Y371845D01*
X1900238Y372148D01*
X1900317Y372449D01*
X1900404Y372749D01*
X1900498Y373046D01*
X1900599Y373341D01*
X1900708Y373633D01*
X1900824Y373922D01*
X1900947Y374209D01*
X1901076Y374492D01*
X1901213Y374772D01*
X1901357Y375049D01*
X1901507Y375322D01*
X1901664Y375591D01*
X1901827Y375856D01*
X1901997Y376118D01*
X1902174Y376375D01*
X1902356Y376627D01*
X1902545Y376875D01*
X1902740Y377119D01*
X1902940Y377357D01*
X1903147Y377591D01*
X1903359Y377819D01*
X1903577Y378042D01*
X1903800Y378260D01*
X1904028Y378472D01*
X1904262Y378679D01*
X1904500Y378879D01*
X1904744Y379074D01*
X1904992Y379263D01*
X1905244Y379445D01*
X1905501Y379622D01*
X1905763Y379792D01*
X1906028Y379955D01*
X1906297Y380112D01*
X1906570Y380262D01*
X1906847Y380406D01*
X1907127Y380543D01*
X1907410Y380672D01*
X1907697Y380795D01*
X1907986Y380911D01*
X1908278Y381020D01*
X1908573Y381121D01*
X1908870Y381215D01*
X1909170Y381302D01*
X1909471Y381381D01*
X1909774Y381453D01*
X1910079Y381518D01*
X1910386Y381575D01*
X1910694Y381625D01*
X1911002Y381666D01*
X1911312Y381701D01*
X1911623Y381728D01*
X1911934Y381747D01*
X1912245Y381758D01*
X1912557Y381762D01*
X1912869Y381758D01*
X1913180Y381747D01*
X1913491Y381728D01*
X1913802Y381701D01*
X1914112Y381666D01*
X1914420Y381625D01*
X1914728Y381575D01*
X1915035Y381518D01*
X1915340Y381453D01*
X1915643Y381381D01*
X1915944Y381302D01*
X1916244Y381215D01*
X1916541Y381121D01*
X1916836Y381020D01*
X1917128Y380911D01*
X1917417Y380795D01*
X1917704Y380672D01*
X1917987Y380543D01*
X1918267Y380406D01*
X1918544Y380262D01*
X1918817Y380112D01*
X1919086Y379955D01*
X1919351Y379792D01*
X1919613Y379622D01*
X1919870Y379445D01*
X1920122Y379263D01*
X1920370Y379074D01*
X1920614Y378879D01*
X1920852Y378679D01*
X1921086Y378472D01*
X1921314Y378260D01*
X1921537Y378042D01*
X1921755Y377819D01*
X1921967Y377591D01*
X1922174Y377357D01*
X1922374Y377119D01*
X1922569Y376875D01*
X1922758Y376627D01*
X1922940Y376375D01*
X1923117Y376118D01*
X1923287Y375856D01*
X1923450Y375591D01*
X1923607Y375322D01*
X1923757Y375049D01*
X1923901Y374772D01*
X1924038Y374492D01*
X1924167Y374209D01*
X1924290Y373922D01*
X1924406Y373633D01*
X1924515Y373341D01*
X1924616Y373046D01*
X1924710Y372749D01*
X1924797Y372449D01*
X1924876Y372148D01*
X1924948Y371845D01*
X1925013Y371540D01*
X1925070Y371233D01*
X1925120Y370925D01*
X1925161Y370617D01*
X1925196Y370307D01*
X1925223Y369996D01*
X1925242Y369685D01*
X1925253Y369374D01*
X1925257Y369062D01*
X1925253Y368750D01*
X1925242Y368439D01*
X1925223Y368128D01*
X1925196Y367817D01*
X1925161Y367507D01*
X1925120Y367199D01*
X1925070Y366891D01*
X1925013Y366584D01*
X1924948Y366279D01*
X1924876Y365976D01*
X1924797Y365675D01*
X1924710Y365375D01*
X1924616Y365078D01*
X1924515Y364783D01*
X1924406Y364491D01*
X1924290Y364202D01*
X1924167Y363915D01*
X1924038Y363632D01*
X1923901Y363352D01*
X1923757Y363075D01*
X1923607Y362802D01*
X1923450Y362533D01*
X1923287Y362268D01*
X1923117Y362006D01*
X1922940Y361749D01*
X1922758Y361497D01*
X1922569Y361249D01*
X1922374Y361005D01*
X1922174Y360767D01*
X1921967Y360533D01*
X1921755Y360305D01*
X1921537Y360082D01*
X1921314Y359864D01*
X1921086Y359652D01*
X1920852Y359445D01*
X1920614Y359245D01*
X1920370Y359050D01*
X1920122Y358861D01*
X1919870Y358679D01*
X1919613Y358502D01*
X1919351Y358332D01*
X1919086Y358169D01*
X1918817Y358012D01*
X1918544Y357862D01*
X1918267Y357718D01*
X1917987Y357581D01*
X1917704Y357452D01*
X1917417Y357329D01*
X1917128Y357213D01*
X1916836Y357104D01*
X1916541Y357003D01*
X1916244Y356909D01*
X1915944Y356822D01*
X1915643Y356743D01*
X1915340Y356671D01*
X1915035Y356606D01*
X1914728Y356549D01*
X1914420Y356499D01*
X1914112Y356458D01*
X1913802Y356423D01*
X1913491Y356396D01*
X1913180Y356377D01*
X1912869Y356366D01*
X1912557Y356362D01*
X1912245Y356366D01*
X1911934Y356377D01*
X1911623Y356396D01*
X1911312Y356423D01*
X1911002Y356458D01*
X1910694Y356499D01*
X1910386Y356549D01*
X1910079Y356606D01*
X1909774Y356671D01*
X1909471Y356743D01*
X1909170Y356822D01*
X1908870Y356909D01*
X1908573Y357003D01*
X1908278Y357104D01*
X1907986Y357213D01*
X1907697Y357329D01*
X1907410Y357452D01*
X1907127Y357581D01*
X1906847Y357718D01*
X1906570Y357862D01*
X1906297Y358012D01*
X1906028Y358169D01*
X1905763Y358332D01*
X1905501Y358502D01*
X1905244Y358679D01*
X1904992Y358861D01*
X1904744Y359050D01*
X1904500Y359245D01*
X1904262Y359445D01*
X1904028Y359652D01*
X1903800Y359864D01*
X1903577Y360082D01*
X1903359Y360305D01*
X1903147Y360533D01*
X1902940Y360767D01*
X1902740Y361005D01*
X1902545Y361249D01*
X1902356Y361497D01*
X1902174Y361749D01*
X1901997Y362006D01*
X1901827Y362268D01*
X1901664Y362533D01*
X1901507Y362802D01*
X1901357Y363075D01*
X1901213Y363352D01*
X1901076Y363632D01*
X1900947Y363915D01*
X1900824Y364202D01*
X1900708Y364491D01*
X1900599Y364783D01*
X1900498Y365078D01*
X1900404Y365375D01*
X1900317Y365675D01*
X1900238Y365976D01*
X1900166Y366279D01*
X1900101Y366584D01*
X1900044Y366891D01*
X1899994Y367199D01*
X1899953Y367507D01*
X1899918Y367817D01*
X1899891Y368128D01*
X1899872Y368439D01*
X1899861Y368750D01*
X1899857Y369062D01*
X1899857Y54356D02*
X1899861Y54668D01*
X1899872Y54979D01*
X1899891Y55290D01*
X1899918Y55601D01*
X1899953Y55911D01*
X1899994Y56219D01*
X1900044Y56527D01*
X1900101Y56834D01*
X1900166Y57139D01*
X1900238Y57442D01*
X1900317Y57743D01*
X1900404Y58043D01*
X1900498Y58340D01*
X1900599Y58635D01*
X1900708Y58927D01*
X1900824Y59216D01*
X1900947Y59503D01*
X1901076Y59786D01*
X1901213Y60066D01*
X1901357Y60343D01*
X1901507Y60616D01*
X1901664Y60885D01*
X1901827Y61150D01*
X1901997Y61412D01*
X1902174Y61669D01*
X1902356Y61921D01*
X1902545Y62169D01*
X1902740Y62413D01*
X1902940Y62651D01*
X1903147Y62885D01*
X1903359Y63113D01*
X1903577Y63336D01*
X1903800Y63554D01*
X1904028Y63766D01*
X1904262Y63973D01*
X1904500Y64173D01*
X1904744Y64368D01*
X1904992Y64557D01*
X1905244Y64739D01*
X1905501Y64916D01*
X1905763Y65086D01*
X1906028Y65249D01*
X1906297Y65406D01*
X1906570Y65556D01*
X1906847Y65700D01*
X1907127Y65837D01*
X1907410Y65966D01*
X1907697Y66089D01*
X1907986Y66205D01*
X1908278Y66314D01*
X1908573Y66415D01*
X1908870Y66509D01*
X1909170Y66596D01*
X1909471Y66675D01*
X1909774Y66747D01*
X1910079Y66812D01*
X1910386Y66869D01*
X1910694Y66919D01*
X1911002Y66960D01*
X1911312Y66995D01*
X1911623Y67022D01*
X1911934Y67041D01*
X1912245Y67052D01*
X1912557Y67056D01*
X1912869Y67052D01*
X1913180Y67041D01*
X1913491Y67022D01*
X1913802Y66995D01*
X1914112Y66960D01*
X1914420Y66919D01*
X1914728Y66869D01*
X1915035Y66812D01*
X1915340Y66747D01*
X1915643Y66675D01*
X1915944Y66596D01*
X1916244Y66509D01*
X1916541Y66415D01*
X1916836Y66314D01*
X1917128Y66205D01*
X1917417Y66089D01*
X1917704Y65966D01*
X1917987Y65837D01*
X1918267Y65700D01*
X1918544Y65556D01*
X1918817Y65406D01*
X1919086Y65249D01*
X1919351Y65086D01*
X1919613Y64916D01*
X1919870Y64739D01*
X1920122Y64557D01*
X1920370Y64368D01*
X1920614Y64173D01*
X1920852Y63973D01*
X1921086Y63766D01*
X1921314Y63554D01*
X1921537Y63336D01*
X1921755Y63113D01*
X1921967Y62885D01*
X1922174Y62651D01*
X1922374Y62413D01*
X1922569Y62169D01*
X1922758Y61921D01*
X1922940Y61669D01*
X1923117Y61412D01*
X1923287Y61150D01*
X1923450Y60885D01*
X1923607Y60616D01*
X1923757Y60343D01*
X1923901Y60066D01*
X1924038Y59786D01*
X1924167Y59503D01*
X1924290Y59216D01*
X1924406Y58927D01*
X1924515Y58635D01*
X1924616Y58340D01*
X1924710Y58043D01*
X1924797Y57743D01*
X1924876Y57442D01*
X1924948Y57139D01*
X1925013Y56834D01*
X1925070Y56527D01*
X1925120Y56219D01*
X1925161Y55911D01*
X1925196Y55601D01*
X1925223Y55290D01*
X1925242Y54979D01*
X1925253Y54668D01*
X1925257Y54356D01*
X1925253Y54044D01*
X1925242Y53733D01*
X1925223Y53422D01*
X1925196Y53111D01*
X1925161Y52801D01*
X1925120Y52493D01*
X1925070Y52185D01*
X1925013Y51878D01*
X1924948Y51573D01*
X1924876Y51270D01*
X1924797Y50969D01*
X1924710Y50669D01*
X1924616Y50372D01*
X1924515Y50077D01*
X1924406Y49785D01*
X1924290Y49496D01*
X1924167Y49209D01*
X1924038Y48926D01*
X1923901Y48646D01*
X1923757Y48369D01*
X1923607Y48096D01*
X1923450Y47827D01*
X1923287Y47562D01*
X1923117Y47300D01*
X1922940Y47043D01*
X1922758Y46791D01*
X1922569Y46543D01*
X1922374Y46299D01*
X1922174Y46061D01*
X1921967Y45827D01*
X1921755Y45599D01*
X1921537Y45376D01*
X1921314Y45158D01*
X1921086Y44946D01*
X1920852Y44739D01*
X1920614Y44539D01*
X1920370Y44344D01*
X1920122Y44155D01*
X1919870Y43973D01*
X1919613Y43796D01*
X1919351Y43626D01*
X1919086Y43463D01*
X1918817Y43306D01*
X1918544Y43156D01*
X1918267Y43012D01*
X1917987Y42875D01*
X1917704Y42746D01*
X1917417Y42623D01*
X1917128Y42507D01*
X1916836Y42398D01*
X1916541Y42297D01*
X1916244Y42203D01*
X1915944Y42116D01*
X1915643Y42037D01*
X1915340Y41965D01*
X1915035Y41900D01*
X1914728Y41843D01*
X1914420Y41793D01*
X1914112Y41752D01*
X1913802Y41717D01*
X1913491Y41690D01*
X1913180Y41671D01*
X1912869Y41660D01*
X1912557Y41656D01*
X1912245Y41660D01*
X1911934Y41671D01*
X1911623Y41690D01*
X1911312Y41717D01*
X1911002Y41752D01*
X1910694Y41793D01*
X1910386Y41843D01*
X1910079Y41900D01*
X1909774Y41965D01*
X1909471Y42037D01*
X1909170Y42116D01*
X1908870Y42203D01*
X1908573Y42297D01*
X1908278Y42398D01*
X1907986Y42507D01*
X1907697Y42623D01*
X1907410Y42746D01*
X1907127Y42875D01*
X1906847Y43012D01*
X1906570Y43156D01*
X1906297Y43306D01*
X1906028Y43463D01*
X1905763Y43626D01*
X1905501Y43796D01*
X1905244Y43973D01*
X1904992Y44155D01*
X1904744Y44344D01*
X1904500Y44539D01*
X1904262Y44739D01*
X1904028Y44946D01*
X1903800Y45158D01*
X1903577Y45376D01*
X1903359Y45599D01*
X1903147Y45827D01*
X1902940Y46061D01*
X1902740Y46299D01*
X1902545Y46543D01*
X1902356Y46791D01*
X1902174Y47043D01*
X1901997Y47300D01*
X1901827Y47562D01*
X1901664Y47827D01*
X1901507Y48096D01*
X1901357Y48369D01*
X1901213Y48646D01*
X1901076Y48926D01*
X1900947Y49209D01*
X1900824Y49496D01*
X1900708Y49785D01*
X1900599Y50077D01*
X1900498Y50372D01*
X1900404Y50669D01*
X1900317Y50969D01*
X1900238Y51270D01*
X1900166Y51573D01*
X1900101Y51878D01*
X1900044Y52185D01*
X1899994Y52493D01*
X1899953Y52801D01*
X1899918Y53111D01*
X1899891Y53422D01*
X1899872Y53733D01*
X1899861Y54044D01*
X1899857Y54356D01*
X1740937Y850040D02*
X1740937Y913540D01*
X1740937Y850040D02*
X1664737Y850040D01*
X1664737Y913540D01*
D13*
X1677437Y900840D02*
X1728237Y900840D01*
X1702837Y918620D02*
X1702837Y880520D01*
D12*
X1664737Y913540D02*
X1664744Y914154D01*
X1664767Y914767D01*
X1664804Y915380D01*
X1664856Y915991D01*
X1664922Y916602D01*
X1665004Y917210D01*
X1665100Y917816D01*
X1665210Y918420D01*
X1665335Y919021D01*
X1665475Y919619D01*
X1665629Y920213D01*
X1665798Y920803D01*
X1665980Y921389D01*
X1666177Y921970D01*
X1666388Y922547D01*
X1666612Y923118D01*
X1666850Y923684D01*
X1667102Y924244D01*
X1667368Y924797D01*
X1667646Y925344D01*
X1667938Y925884D01*
X1668243Y926417D01*
X1668561Y926942D01*
X1668891Y927460D01*
X1669233Y927969D01*
X1669588Y928470D01*
X1669955Y928962D01*
X1670333Y929445D01*
X1670723Y929919D01*
X1671125Y930383D01*
X1671537Y930838D01*
X1671961Y931282D01*
X1672395Y931716D01*
X1672839Y932140D01*
X1673294Y932552D01*
X1673758Y932954D01*
X1674232Y933344D01*
X1674715Y933722D01*
X1675207Y934089D01*
X1675708Y934444D01*
X1676217Y934786D01*
X1676735Y935116D01*
X1677260Y935434D01*
X1677793Y935739D01*
X1678333Y936031D01*
X1678880Y936309D01*
X1679433Y936575D01*
X1679993Y936827D01*
X1680559Y937065D01*
X1681130Y937289D01*
X1681707Y937500D01*
X1682288Y937697D01*
X1682874Y937879D01*
X1683464Y938048D01*
X1684058Y938202D01*
X1684656Y938342D01*
X1685257Y938467D01*
X1685861Y938577D01*
X1686467Y938673D01*
X1687075Y938755D01*
X1687686Y938821D01*
X1688297Y938873D01*
X1688910Y938910D01*
X1689523Y938933D01*
X1690137Y938940D01*
X1715537Y938940D01*
X1716151Y938933D01*
X1716764Y938910D01*
X1717377Y938873D01*
X1717988Y938821D01*
X1718599Y938755D01*
X1719207Y938673D01*
X1719813Y938577D01*
X1720417Y938467D01*
X1721018Y938342D01*
X1721616Y938202D01*
X1722210Y938048D01*
X1722800Y937879D01*
X1723386Y937697D01*
X1723967Y937500D01*
X1724544Y937289D01*
X1725115Y937065D01*
X1725681Y936827D01*
X1726241Y936575D01*
X1726794Y936309D01*
X1727341Y936031D01*
X1727881Y935739D01*
X1728414Y935434D01*
X1728939Y935116D01*
X1729457Y934786D01*
X1729966Y934444D01*
X1730467Y934089D01*
X1730959Y933722D01*
X1731442Y933344D01*
X1731916Y932954D01*
X1732380Y932552D01*
X1732835Y932140D01*
X1733279Y931716D01*
X1733713Y931282D01*
X1734137Y930838D01*
X1734549Y930383D01*
X1734951Y929919D01*
X1735341Y929445D01*
X1735719Y928962D01*
X1736086Y928470D01*
X1736441Y927969D01*
X1736783Y927460D01*
X1737113Y926942D01*
X1737431Y926417D01*
X1737736Y925884D01*
X1738028Y925344D01*
X1738306Y924797D01*
X1738572Y924244D01*
X1738824Y923684D01*
X1739062Y923118D01*
X1739286Y922547D01*
X1739497Y921970D01*
X1739694Y921389D01*
X1739876Y920803D01*
X1740045Y920213D01*
X1740199Y919619D01*
X1740339Y919021D01*
X1740464Y918420D01*
X1740574Y917816D01*
X1740670Y917210D01*
X1740752Y916602D01*
X1740818Y915991D01*
X1740870Y915380D01*
X1740907Y914767D01*
X1740930Y914154D01*
X1740937Y913540D01*
X1664737Y900840D02*
X1664748Y901775D01*
X1664783Y902709D01*
X1664840Y903643D01*
X1664920Y904574D01*
X1665024Y905504D01*
X1665149Y906430D01*
X1665298Y907354D01*
X1665469Y908273D01*
X1665663Y909188D01*
X1665879Y910098D01*
X1666117Y911002D01*
X1666378Y911900D01*
X1666660Y912791D01*
X1666964Y913676D01*
X1667290Y914552D01*
X1667637Y915420D01*
X1668006Y916280D01*
X1668395Y917130D01*
X1668805Y917970D01*
X1669236Y918800D01*
X1669687Y919619D01*
X1670158Y920427D01*
X1670648Y921223D01*
X1671158Y922007D01*
X1671687Y922778D01*
X1672235Y923536D01*
X1672801Y924280D01*
X1673385Y925010D01*
X1673987Y925726D01*
X1674607Y926426D01*
X1675243Y927111D01*
X1675896Y927781D01*
X1676566Y928434D01*
X1677251Y929070D01*
X1677951Y929690D01*
X1678667Y930292D01*
X1679397Y930876D01*
X1680141Y931442D01*
X1680899Y931990D01*
X1681670Y932519D01*
X1682454Y933029D01*
X1683250Y933519D01*
X1684058Y933990D01*
X1684877Y934441D01*
X1685707Y934872D01*
X1686547Y935282D01*
X1687397Y935671D01*
X1688257Y936040D01*
X1689125Y936387D01*
X1690001Y936713D01*
X1690886Y937017D01*
X1691777Y937299D01*
X1692675Y937560D01*
X1693579Y937798D01*
X1694489Y938014D01*
X1695404Y938208D01*
X1696323Y938379D01*
X1697247Y938528D01*
X1698173Y938653D01*
X1699103Y938757D01*
X1700034Y938837D01*
X1700968Y938894D01*
X1701902Y938929D01*
X1702837Y938940D01*
X1703772Y938929D01*
X1704706Y938894D01*
X1705640Y938837D01*
X1706571Y938757D01*
X1707501Y938653D01*
X1708427Y938528D01*
X1709351Y938379D01*
X1710270Y938208D01*
X1711185Y938014D01*
X1712095Y937798D01*
X1712999Y937560D01*
X1713897Y937299D01*
X1714788Y937017D01*
X1715673Y936713D01*
X1716549Y936387D01*
X1717417Y936040D01*
X1718277Y935671D01*
X1719127Y935282D01*
X1719967Y934872D01*
X1720797Y934441D01*
X1721616Y933990D01*
X1722424Y933519D01*
X1723220Y933029D01*
X1724004Y932519D01*
X1724775Y931990D01*
X1725533Y931442D01*
X1726277Y930876D01*
X1727007Y930292D01*
X1727723Y929690D01*
X1728423Y929070D01*
X1729108Y928434D01*
X1729778Y927781D01*
X1730431Y927111D01*
X1731067Y926426D01*
X1731687Y925726D01*
X1732289Y925010D01*
X1732873Y924280D01*
X1733439Y923536D01*
X1733987Y922778D01*
X1734516Y922007D01*
X1735026Y921223D01*
X1735516Y920427D01*
X1735987Y919619D01*
X1736438Y918800D01*
X1736869Y917970D01*
X1737279Y917130D01*
X1737668Y916280D01*
X1738037Y915420D01*
X1738384Y914552D01*
X1738710Y913676D01*
X1739014Y912791D01*
X1739296Y911900D01*
X1739557Y911002D01*
X1739795Y910098D01*
X1740011Y909188D01*
X1740205Y908273D01*
X1740376Y907354D01*
X1740525Y906430D01*
X1740650Y905504D01*
X1740754Y904574D01*
X1740834Y903643D01*
X1740891Y902709D01*
X1740926Y901775D01*
X1740937Y900840D01*
X1740926Y899905D01*
X1740891Y898971D01*
X1740834Y898037D01*
X1740754Y897106D01*
X1740650Y896176D01*
X1740525Y895250D01*
X1740376Y894326D01*
X1740205Y893407D01*
X1740011Y892492D01*
X1739795Y891582D01*
X1739557Y890678D01*
X1739296Y889780D01*
X1739014Y888889D01*
X1738710Y888004D01*
X1738384Y887128D01*
X1738037Y886260D01*
X1737668Y885400D01*
X1737279Y884550D01*
X1736869Y883710D01*
X1736438Y882880D01*
X1735987Y882061D01*
X1735516Y881253D01*
X1735026Y880457D01*
X1734516Y879673D01*
X1733987Y878902D01*
X1733439Y878144D01*
X1732873Y877400D01*
X1732289Y876670D01*
X1731687Y875954D01*
X1731067Y875254D01*
X1730431Y874569D01*
X1729778Y873899D01*
X1729108Y873246D01*
X1728423Y872610D01*
X1727723Y871990D01*
X1727007Y871388D01*
X1726277Y870804D01*
X1725533Y870238D01*
X1724775Y869690D01*
X1724004Y869161D01*
X1723220Y868651D01*
X1722424Y868161D01*
X1721616Y867690D01*
X1720797Y867239D01*
X1719967Y866808D01*
X1719127Y866398D01*
X1718277Y866009D01*
X1717417Y865640D01*
X1716549Y865293D01*
X1715673Y864967D01*
X1714788Y864663D01*
X1713897Y864381D01*
X1712999Y864120D01*
X1712095Y863882D01*
X1711185Y863666D01*
X1710270Y863472D01*
X1709351Y863301D01*
X1708427Y863152D01*
X1707501Y863027D01*
X1706571Y862923D01*
X1705640Y862843D01*
X1704706Y862786D01*
X1703772Y862751D01*
X1702837Y862740D01*
X1701902Y862751D01*
X1700968Y862786D01*
X1700034Y862843D01*
X1699103Y862923D01*
X1698173Y863027D01*
X1697247Y863152D01*
X1696323Y863301D01*
X1695404Y863472D01*
X1694489Y863666D01*
X1693579Y863882D01*
X1692675Y864120D01*
X1691777Y864381D01*
X1690886Y864663D01*
X1690001Y864967D01*
X1689125Y865293D01*
X1688257Y865640D01*
X1687397Y866009D01*
X1686547Y866398D01*
X1685707Y866808D01*
X1684877Y867239D01*
X1684058Y867690D01*
X1683250Y868161D01*
X1682454Y868651D01*
X1681670Y869161D01*
X1680899Y869690D01*
X1680141Y870238D01*
X1679397Y870804D01*
X1678667Y871388D01*
X1677951Y871990D01*
X1677251Y872610D01*
X1676566Y873246D01*
X1675896Y873899D01*
X1675243Y874569D01*
X1674607Y875254D01*
X1673987Y875954D01*
X1673385Y876670D01*
X1672801Y877400D01*
X1672235Y878144D01*
X1671687Y878902D01*
X1671158Y879673D01*
X1670648Y880457D01*
X1670158Y881253D01*
X1669687Y882061D01*
X1669236Y882880D01*
X1668805Y883710D01*
X1668395Y884550D01*
X1668006Y885400D01*
X1667637Y886260D01*
X1667290Y887128D01*
X1666964Y888004D01*
X1666660Y888889D01*
X1666378Y889780D01*
X1666117Y890678D01*
X1665879Y891582D01*
X1665663Y892492D01*
X1665469Y893407D01*
X1665298Y894326D01*
X1665149Y895250D01*
X1665024Y896176D01*
X1664920Y897106D01*
X1664840Y898037D01*
X1664783Y898971D01*
X1664748Y899905D01*
X1664737Y900840D01*
D11*
X3003178Y531643D02*
X3003204Y533800D01*
X3003284Y535955D01*
X3003416Y538108D01*
X3003601Y540257D01*
X3003839Y542401D01*
X3004129Y544538D01*
X3004472Y546668D01*
X3004867Y548788D01*
X3005313Y550898D01*
X3005812Y552997D01*
X3006362Y555083D01*
X3006962Y557154D01*
X3007614Y559211D01*
X3008315Y561250D01*
X3009067Y563272D01*
X3009868Y565275D01*
X3010718Y567257D01*
X3011616Y569218D01*
X3012562Y571157D01*
X3013555Y573071D01*
X3014595Y574961D01*
X3015681Y576824D01*
X3016813Y578661D01*
X3017989Y580469D01*
X3019209Y582247D01*
X3020473Y583995D01*
X3021779Y585712D01*
X3023127Y587396D01*
X3024515Y589046D01*
X3025944Y590662D01*
X3027412Y592243D01*
X3028919Y593786D01*
X3030462Y595293D01*
X3032043Y596761D01*
X3033659Y598190D01*
X3035309Y599578D01*
X3036993Y600926D01*
X3038710Y602232D01*
X3040458Y603496D01*
X3042236Y604716D01*
X3044044Y605892D01*
X3045881Y607024D01*
X3047744Y608110D01*
X3049634Y609150D01*
X3051548Y610143D01*
X3053487Y611089D01*
X3055448Y611987D01*
X3057430Y612837D01*
X3059433Y613638D01*
X3061455Y614390D01*
X3063494Y615091D01*
X3065551Y615743D01*
X3067622Y616343D01*
X3069708Y616893D01*
X3071807Y617392D01*
X3073917Y617838D01*
X3076037Y618233D01*
X3078167Y618576D01*
X3080304Y618866D01*
X3082448Y619104D01*
X3084597Y619289D01*
X3086750Y619421D01*
X3088905Y619501D01*
X3091062Y619527D01*
X3093219Y619501D01*
X3095374Y619421D01*
X3097527Y619289D01*
X3099676Y619104D01*
X3101820Y618866D01*
X3103957Y618576D01*
X3106087Y618233D01*
X3108207Y617838D01*
X3110317Y617392D01*
X3112416Y616893D01*
X3114502Y616343D01*
X3116573Y615743D01*
X3118630Y615091D01*
X3120669Y614390D01*
X3122691Y613638D01*
X3124694Y612837D01*
X3126676Y611987D01*
X3128637Y611089D01*
X3130576Y610143D01*
X3132490Y609150D01*
X3134380Y608110D01*
X3136243Y607024D01*
X3138080Y605892D01*
X3139888Y604716D01*
X3141666Y603496D01*
X3143414Y602232D01*
X3145131Y600926D01*
X3146815Y599578D01*
X3148465Y598190D01*
X3150081Y596761D01*
X3151662Y595293D01*
X3153205Y593786D01*
X3154712Y592243D01*
X3156180Y590662D01*
X3157609Y589046D01*
X3158997Y587396D01*
X3160345Y585712D01*
X3161651Y583995D01*
X3162915Y582247D01*
X3164135Y580469D01*
X3165311Y578661D01*
X3166443Y576824D01*
X3167529Y574961D01*
X3168569Y573071D01*
X3169562Y571157D01*
X3170508Y569218D01*
X3171406Y567257D01*
X3172256Y565275D01*
X3173057Y563272D01*
X3173809Y561250D01*
X3174510Y559211D01*
X3175162Y557154D01*
X3175762Y555083D01*
X3176312Y552997D01*
X3176811Y550898D01*
X3177257Y548788D01*
X3177652Y546668D01*
X3177995Y544538D01*
X3178285Y542401D01*
X3178523Y540257D01*
X3178708Y538108D01*
X3178840Y535955D01*
X3178920Y533800D01*
X3178946Y531643D01*
X3178920Y529486D01*
X3178840Y527331D01*
X3178708Y525178D01*
X3178523Y523029D01*
X3178285Y520885D01*
X3177995Y518748D01*
X3177652Y516618D01*
X3177257Y514498D01*
X3176811Y512388D01*
X3176312Y510289D01*
X3175762Y508203D01*
X3175162Y506132D01*
X3174510Y504075D01*
X3173809Y502036D01*
X3173057Y500014D01*
X3172256Y498011D01*
X3171406Y496029D01*
X3170508Y494068D01*
X3169562Y492129D01*
X3168569Y490215D01*
X3167529Y488325D01*
X3166443Y486462D01*
X3165311Y484625D01*
X3164135Y482817D01*
X3162915Y481039D01*
X3161651Y479291D01*
X3160345Y477574D01*
X3158997Y475890D01*
X3157609Y474240D01*
X3156180Y472624D01*
X3154712Y471043D01*
X3153205Y469500D01*
X3151662Y467993D01*
X3150081Y466525D01*
X3148465Y465096D01*
X3146815Y463708D01*
X3145131Y462360D01*
X3143414Y461054D01*
X3141666Y459790D01*
X3139888Y458570D01*
X3138080Y457394D01*
X3136243Y456262D01*
X3134380Y455176D01*
X3132490Y454136D01*
X3130576Y453143D01*
X3128637Y452197D01*
X3126676Y451299D01*
X3124694Y450449D01*
X3122691Y449648D01*
X3120669Y448896D01*
X3118630Y448195D01*
X3116573Y447543D01*
X3114502Y446943D01*
X3112416Y446393D01*
X3110317Y445894D01*
X3108207Y445448D01*
X3106087Y445053D01*
X3103957Y444710D01*
X3101820Y444420D01*
X3099676Y444182D01*
X3097527Y443997D01*
X3095374Y443865D01*
X3093219Y443785D01*
X3091062Y443759D01*
X3088905Y443785D01*
X3086750Y443865D01*
X3084597Y443997D01*
X3082448Y444182D01*
X3080304Y444420D01*
X3078167Y444710D01*
X3076037Y445053D01*
X3073917Y445448D01*
X3071807Y445894D01*
X3069708Y446393D01*
X3067622Y446943D01*
X3065551Y447543D01*
X3063494Y448195D01*
X3061455Y448896D01*
X3059433Y449648D01*
X3057430Y450449D01*
X3055448Y451299D01*
X3053487Y452197D01*
X3051548Y453143D01*
X3049634Y454136D01*
X3047744Y455176D01*
X3045881Y456262D01*
X3044044Y457394D01*
X3042236Y458570D01*
X3040458Y459790D01*
X3038710Y461054D01*
X3036993Y462360D01*
X3035309Y463708D01*
X3033659Y465096D01*
X3032043Y466525D01*
X3030462Y467993D01*
X3028919Y469500D01*
X3027412Y471043D01*
X3025944Y472624D01*
X3024515Y474240D01*
X3023127Y475890D01*
X3021779Y477574D01*
X3020473Y479291D01*
X3019209Y481039D01*
X3017989Y482817D01*
X3016813Y484625D01*
X3015681Y486462D01*
X3014595Y488325D01*
X3013555Y490215D01*
X3012562Y492129D01*
X3011616Y494068D01*
X3010718Y496029D01*
X3009868Y498011D01*
X3009067Y500014D01*
X3008315Y502036D01*
X3007614Y504075D01*
X3006962Y506132D01*
X3006362Y508203D01*
X3005812Y510289D01*
X3005313Y512388D01*
X3004867Y514498D01*
X3004472Y516618D01*
X3004129Y518748D01*
X3003839Y520885D01*
X3003601Y523029D01*
X3003416Y525178D01*
X3003284Y527331D01*
X3003204Y529486D01*
X3003178Y531643D01*
D10*
X3129362Y298643D02*
X3154362Y298643D01*
X3129362Y298643D02*
X3129362Y383643D01*
X3154362Y383643D01*
X3154362Y298643D01*
X3141862Y298643D02*
X3141862Y300033D01*
X3141862Y382253D02*
X3141862Y383643D01*
M02*
