G04 EAGLE Gerber RS-274X export*
G75*
%MOMM*%
%FSLAX34Y34*%
%LPD*%
%INSoldermask Top*%
%IPPOS*%
%AMOC8*
5,1,8,0,0,1.08239X$1,22.5*%
G01*
G04 Define Apertures*
%ADD10C,1.633200*%
%ADD11C,2.082800*%
%ADD12C,1.727200*%
%ADD13C,1.879600*%
%ADD14C,2.108200*%
%ADD15C,0.959600*%
D10*
X1575753Y441198D03*
X1575753Y542798D03*
D11*
X428050Y258408D03*
X453450Y258408D03*
X478850Y258408D03*
X504250Y258408D03*
X529650Y258408D03*
X555050Y258408D03*
X605850Y258408D03*
X631250Y258408D03*
X656650Y258408D03*
X682050Y258408D03*
X707450Y258408D03*
X732850Y258408D03*
X732850Y741008D03*
X707450Y741008D03*
X682050Y741008D03*
X656650Y741008D03*
X631250Y741008D03*
X605850Y741008D03*
X580450Y741008D03*
X555050Y741008D03*
X516950Y741008D03*
X491550Y741008D03*
X466150Y741008D03*
X440750Y741008D03*
X415350Y741008D03*
X389950Y741008D03*
X364550Y741008D03*
X339150Y741008D03*
X313750Y741008D03*
X288350Y741008D03*
X402650Y258408D03*
X377250Y258408D03*
D12*
X1220153Y358648D02*
X1220153Y373888D01*
X1245553Y373888D02*
X1245553Y358648D01*
X1270953Y358648D02*
X1270953Y373888D01*
X1296353Y373888D02*
X1296353Y358648D01*
X1321753Y358648D02*
X1321753Y373888D01*
X1347153Y373888D02*
X1347153Y358648D01*
X1372553Y358648D02*
X1372553Y373888D01*
X1397953Y373888D02*
X1397953Y358648D01*
X1423353Y358648D02*
X1423353Y373888D01*
X1448753Y373888D02*
X1448753Y358648D01*
X1474153Y358648D02*
X1474153Y373888D01*
X1499553Y373888D02*
X1499553Y358648D01*
X1524953Y358648D02*
X1524953Y373888D01*
X1550353Y373888D02*
X1550353Y358648D01*
X1575753Y358648D02*
X1575753Y373888D01*
X1601153Y373888D02*
X1601153Y358648D01*
D13*
X1677437Y875440D03*
X1702837Y926240D03*
X1728237Y875440D03*
D14*
X3153292Y593873D03*
X3091062Y619527D03*
X3028832Y593873D03*
X3028832Y469413D03*
X3091062Y443759D03*
X3153292Y469413D03*
D10*
X3141862Y290343D03*
X3141862Y391943D03*
D15*
X1065276Y332232D03*
M02*
